  0
SECTION
  2
HEADER
  9
$ACADVER
  1
AC1009
  9
$EXTMIN
 10
0.0
 20
0.0
 30
0.0
  9
$EXTMAX
 10
1000.0
 20
1000.0
 30
0.0
  9
$FILLMODE
 70
 0
  9
$SPLFRAME
 70
 1
  0
ENDSEC
  0
SECTION
  2
TABLES
  0
TABLE
  2
LAYER
 70
1
  0
LAYER
  2
0
 70
     0
 62
     7
  6
CONTINUOUS
  0
ENDTAB
  0
ENDSEC
  0
SECTION
  2
ENTITIES
  0
POLYLINE
  8
0
 62
     250
 66
     1
 10
0
 20
0
 30
0.0
 70
     1
 40
0
 41
0
  0
VERTEX
  8
0
 10
6.35172
 20
9.35829
 30
0.0
 40
0
 41
0
  0
VERTEX
  8
0
 10
6.27701
 20
9.35829
 30
0.0
 40
0
 41
0
  0
VERTEX
  8
0
 10
6.05296
 20
9.36669
 30
0.0
 40
0
 41
0
  0
VERTEX
  8
0
 10
5.76497
 20
9.39122
 30
0.0
 40
0
 41
0
  0
VERTEX
  8
0
 10
5.48986
 20
9.43083
 30
0.0
 40
0
 41
0
  0
VERTEX
  8
0
 10
5.22971
 20
9.48465
 30
0.0
 40
0
 41
0
  0
VERTEX
  8
0
 10
4.9866
 20
9.5516
 30
0.0
 40
0
 41
0
  0
VERTEX
  8
0
 10
4.76269
 20
9.63075
 30
0.0
 40
0
 41
0
  0
VERTEX
  8
0
 10
4.56011
 20
9.72108
 30
0.0
 40
0
 41
0
  0
VERTEX
  8
0
 10
4.42426
 20
9.79428
 30
0.0
 40
0
 41
0
  0
VERTEX
  8
0
 10
4.38092
 20
9.82161
 30
0.0
 40
0
 41
0
  0
VERTEX
  8
0
 10
3.90767
 20
6.87879
 30
0.0
 40
0
 41
0
  0
VERTEX
  8
0
 10
3.90767
 20
6.84983
 30
0.0
 40
0
 41
0
  0
VERTEX
  8
0
 10
3.92025
 20
6.76292
 30
0.0
 40
0
 41
0
  0
VERTEX
  8
0
 10
3.95731
 20
6.65039
 30
0.0
 40
0
 41
0
  0
VERTEX
  8
0
 10
4.01753
 20
6.54178
 30
0.0
 40
0
 41
0
  0
VERTEX
  8
0
 10
4.09972
 20
6.43761
 30
0.0
 40
0
 41
0
  0
VERTEX
  8
0
 10
4.20264
 20
6.33854
 30
0.0
 40
0
 41
0
  0
VERTEX
  8
0
 10
4.32503
 20
6.24507
 30
0.0
 40
0
 41
0
  0
VERTEX
  8
0
 10
4.46571
 20
6.15782
 30
0.0
 40
0
 41
0
  0
VERTEX
  8
0
 10
4.62349
 20
6.07731
 30
0.0
 40
0
 41
0
  0
VERTEX
  8
0
 10
4.79704
 20
6.00418
 30
0.0
 40
0
 41
0
  0
VERTEX
  8
0
 10
4.98519
 20
5.93892
 30
0.0
 40
0
 41
0
  0
VERTEX
  8
0
 10
5.18668
 20
5.88217
 30
0.0
 40
0
 41
0
  0
VERTEX
  8
0
 10
5.40033
 20
5.83442
 30
0.0
 40
0
 41
0
  0
VERTEX
  8
0
 10
5.62489
 20
5.79633
 30
0.0
 40
0
 41
0
  0
VERTEX
  8
0
 10
5.85915
 20
5.76839
 30
0.0
 40
0
 41
0
  0
VERTEX
  8
0
 10
6.10178
 20
5.75119
 30
0.0
 40
0
 41
0
  0
VERTEX
  8
0
 10
6.28922
 20
5.74533
 30
0.0
 40
0
 41
0
  0
VERTEX
  8
0
 10
6.35172
 20
5.74533
 30
0.0
 40
0
 41
0
  0
VERTEX
  8
0
 10
6.41417
 20
5.74533
 30
0.0
 40
0
 41
0
  0
VERTEX
  8
0
 10
6.60161
 20
5.75119
 30
0.0
 40
0
 41
0
  0
VERTEX
  8
0
 10
6.84424
 20
5.76839
 30
0.0
 40
0
 41
0
  0
VERTEX
  8
0
 10
7.0785
 20
5.79633
 30
0.0
 40
0
 41
0
  0
VERTEX
  8
0
 10
7.30306
 20
5.83442
 30
0.0
 40
0
 41
0
  0
VERTEX
  8
0
 10
7.51671
 20
5.88217
 30
0.0
 40
0
 41
0
  0
VERTEX
  8
0
 10
7.71821
 20
5.93892
 30
0.0
 40
0
 41
0
  0
VERTEX
  8
0
 10
7.90636
 20
6.00418
 30
0.0
 40
0
 41
0
  0
VERTEX
  8
0
 10
8.07992
 20
6.07731
 30
0.0
 40
0
 41
0
  0
VERTEX
  8
0
 10
8.23768
 20
6.15782
 30
0.0
 40
0
 41
0
  0
VERTEX
  8
0
 10
8.37836
 20
6.24507
 30
0.0
 40
0
 41
0
  0
VERTEX
  8
0
 10
8.50076
 20
6.33854
 30
0.0
 40
0
 41
0
  0
VERTEX
  8
0
 10
8.60368
 20
6.43761
 30
0.0
 40
0
 41
0
  0
VERTEX
  8
0
 10
8.68588
 20
6.54178
 30
0.0
 40
0
 41
0
  0
VERTEX
  8
0
 10
8.7461
 20
6.65039
 30
0.0
 40
0
 41
0
  0
VERTEX
  8
0
 10
8.78315
 20
6.76292
 30
0.0
 40
0
 41
0
  0
VERTEX
  8
0
 10
8.79579
 20
6.84983
 30
0.0
 40
0
 41
0
  0
VERTEX
  8
0
 10
8.79579
 20
6.87879
 30
0.0
 40
0
 41
0
  0
VERTEX
  8
0
 10
8.32254
 20
9.82161
 30
0.0
 40
0
 41
0
  0
VERTEX
  8
0
 10
8.27914
 20
9.79428
 30
0.0
 40
0
 41
0
  0
VERTEX
  8
0
 10
8.14328
 20
9.72108
 30
0.0
 40
0
 41
0
  0
VERTEX
  8
0
 10
7.94065
 20
9.63075
 30
0.0
 40
0
 41
0
  0
VERTEX
  8
0
 10
7.71674
 20
9.5516
 30
0.0
 40
0
 41
0
  0
VERTEX
  8
0
 10
7.47368
 20
9.48465
 30
0.0
 40
0
 41
0
  0
VERTEX
  8
0
 10
7.21349
 20
9.43083
 30
0.0
 40
0
 41
0
  0
VERTEX
  8
0
 10
6.93837
 20
9.39122
 30
0.0
 40
0
 41
0
  0
VERTEX
  8
0
 10
6.65039
 20
9.36669
 30
0.0
 40
0
 41
0
  0
VERTEX
  8
0
 10
6.42638
 20
9.35829
 30
0.0
 40
0
 41
0
  0
VERTEX
  8
0
 10
6.35172
 20
9.35829
 30
0.0
 40
0
 41
0
  0
SEQEND
 8
0
  0
POLYLINE
  8
0
 62
     250
 66
     1
 10
0
 20
0
 30
0.0
 70
     1
 40
0
 41
0
  0
VERTEX
  8
0
 10
4.15597
 20
10.87
 30
0.0
 40
0
 41
0
  0
VERTEX
  8
0
 10
4.18033
 20
10.8254
 30
0.0
 40
0
 41
0
  0
VERTEX
  8
0
 10
4.27843
 20
10.7054
 30
0.0
 40
0
 41
0
  0
VERTEX
  8
0
 10
4.45535
 20
10.5545
 30
0.0
 40
0
 41
0
  0
VERTEX
  8
0
 10
4.68115
 20
10.4198
 30
0.0
 40
0
 41
0
  0
VERTEX
  8
0
 10
4.95047
 20
10.3038
 30
0.0
 40
0
 41
0
  0
VERTEX
  8
0
 10
5.25765
 20
10.2092
 30
0.0
 40
0
 41
0
  0
VERTEX
  8
0
 10
5.59728
 20
10.1385
 30
0.0
 40
0
 41
0
  0
VERTEX
  8
0
 10
5.96382
 20
10.0941
 30
0.0
 40
0
 41
0
  0
VERTEX
  8
0
 10
6.25472
 20
10.0788
 30
0.0
 40
0
 41
0
  0
VERTEX
  8
0
 10
6.35172
 20
10.0788
 30
0.0
 40
0
 41
0
  0
VERTEX
  8
0
 10
6.44868
 20
10.0788
 30
0.0
 40
0
 41
0
  0
VERTEX
  8
0
 10
6.73953
 20
10.0941
 30
0.0
 40
0
 41
0
  0
VERTEX
  8
0
 10
7.10596
 20
10.1385
 30
0.0
 40
0
 41
0
  0
VERTEX
  8
0
 10
7.44553
 20
10.2092
 30
0.0
 40
0
 41
0
  0
VERTEX
  8
0
 10
7.75271
 20
10.3038
 30
0.0
 40
0
 41
0
  0
VERTEX
  8
0
 10
8.02192
 20
10.4197
 30
0.0
 40
0
 41
0
  0
VERTEX
  8
0
 10
8.24778
 20
10.5543
 30
0.0
 40
0
 41
0
  0
VERTEX
  8
0
 10
8.42469
 20
10.7051
 30
0.0
 40
0
 41
0
  0
VERTEX
  8
0
 10
8.52285
 20
10.8251
 30
0.0
 40
0
 41
0
  0
VERTEX
  8
0
 10
8.54725
 20
10.8696
 30
0.0
 40
0
 41
0
  0
VERTEX
  8
0
 10
8.54949
 20
10.8749
 30
0.0
 40
0
 41
0
  0
VERTEX
  8
0
 10
9.13167
 20
13.3035
 30
0.0
 40
0
 41
0
  0
VERTEX
  8
0
 10
8.22146
 20
13.3851
 30
0.0
 40
0
 41
0
  0
VERTEX
  8
0
 10
8.19879
 20
13.3546
 30
0.0
 40
0
 41
0
  0
VERTEX
  8
0
 10
8.11664
 20
13.2735
 30
0.0
 40
0
 41
0
  0
VERTEX
  8
0
 10
7.97607
 20
13.1711
 30
0.0
 40
0
 41
0
  0
VERTEX
  8
0
 10
7.80279
 20
13.079
 30
0.0
 40
0
 41
0
  0
VERTEX
  8
0
 10
7.65136
 20
13.0163
 30
0.0
 40
0
 41
0
  0
VERTEX
  8
0
 10
7.59983
 20
12.9986
 30
0.0
 40
0
 41
0
  0
VERTEX
  8
0
 10
8.22906
 20
12.7322
 30
0.0
 40
0
 41
0
  0
VERTEX
  8
0
 10
8.14936
 20
11.7669
 30
0.0
 40
0
 41
0
  0
VERTEX
  8
0
 10
8.14936
 20
11.7669
 30
0.0
 40
0
 41
0
  0
VERTEX
  8
0
 10
8.13043
 20
11.7516
 30
0.0
 40
0
 41
0
  0
VERTEX
  8
0
 10
8.07449
 20
11.7123
 30
0.0
 40
0
 41
0
  0
VERTEX
  8
0
 10
7.98258
 20
11.6591
 30
0.0
 40
0
 41
0
  0
VERTEX
  8
0
 10
7.85596
 20
11.602
 30
0.0
 40
0
 41
0
  0
VERTEX
  8
0
 10
7.69575
 20
11.5512
 30
0.0
 40
0
 41
0
  0
VERTEX
  8
0
 10
7.50299
 20
11.5167
 30
0.0
 40
0
 41
0
  0
VERTEX
  8
0
 10
7.27892
 20
11.5085
 30
0.0
 40
0
 41
0
  0
VERTEX
  8
0
 10
7.08735
 20
11.5251
 30
0.0
 40
0
 41
0
  0
VERTEX
  8
0
 10
7.02468
 20
11.5367
 30
0.0
 40
0
 41
0
  0
VERTEX
  8
0
 10
7.02468
 20
12.5285
 30
0.0
 40
0
 41
0
  0
VERTEX
  8
0
 10
6.79069
 20
12.8356
 30
0.0
 40
0
 41
0
  0
VERTEX
  8
0
 10
6.75543
 20
12.8324
 30
0.0
 40
0
 41
0
  0
VERTEX
  8
0
 10
6.45264
 20
12.8151
 30
0.0
 40
0
 41
0
  0
VERTEX
  8
0
 10
6.35172
 20
12.8151
 30
0.0
 40
0
 41
0
  0
VERTEX
  8
0
 10
6.22353
 20
12.8151
 30
0.0
 40
0
 41
0
  0
VERTEX
  8
0
 10
5.87972
 20
12.8389
 30
0.0
 40
0
 41
0
  0
VERTEX
  8
0
 10
5.83892
 20
12.8434
 30
0.0
 40
0
 41
0
  0
VERTEX
  8
0
 10
5.59901
 20
12.5285
 30
0.0
 40
0
 41
0
  0
VERTEX
  8
0
 10
5.59901
 20
11.5367
 30
0.0
 40
0
 41
0
  0
VERTEX
  8
0
 10
5.53629
 20
11.5251
 30
0.0
 40
0
 41
0
  0
VERTEX
  8
0
 10
5.34472
 20
11.5085
 30
0.0
 40
0
 41
0
  0
VERTEX
  8
0
 10
5.12067
 20
11.5167
 30
0.0
 40
0
 41
0
  0
VERTEX
  8
0
 10
4.92796
 20
11.5512
 30
0.0
 40
0
 41
0
  0
VERTEX
  8
0
 10
4.76768
 20
11.602
 30
0.0
 40
0
 41
0
  0
VERTEX
  8
0
 10
4.64106
 20
11.6591
 30
0.0
 40
0
 41
0
  0
VERTEX
  8
0
 10
4.54921
 20
11.7123
 30
0.0
 40
0
 41
0
  0
VERTEX
  8
0
 10
4.49328
 20
11.7516
 30
0.0
 40
0
 41
0
  0
VERTEX
  8
0
 10
4.47439
 20
11.7669
 30
0.0
 40
0
 41
0
  0
VERTEX
  8
0
 10
4.47439
 20
11.7669
 30
0.0
 40
0
 41
0
  0
VERTEX
  8
0
 10
4.39469
 20
12.7322
 30
0.0
 40
0
 41
0
  0
VERTEX
  8
0
 10
5.06108
 20
13.0144
 30
0.0
 40
0
 41
0
  0
VERTEX
  8
0
 10
5.01264
 20
13.032
 30
0.0
 40
0
 41
0
  0
VERTEX
  8
0
 10
4.87071
 20
13.0938
 30
0.0
 40
0
 41
0
  0
VERTEX
  8
0
 10
4.70811
 20
13.1836
 30
0.0
 40
0
 41
0
  0
VERTEX
  8
0
 10
4.57607
 20
13.2829
 30
0.0
 40
0
 41
0
  0
VERTEX
  8
0
 10
4.49875
 20
13.3612
 30
0.0
 40
0
 41
0
  0
VERTEX
  8
0
 10
4.47754
 20
13.3906
 30
0.0
 40
0
 41
0
  0
VERTEX
  8
0
 10
3.57053
 20
13.3035
 30
0.0
 40
0
 41
0
  0
VERTEX
  8
0
 10
4.15278
 20
10.8749
 30
0.0
 40
0
 41
0
  0
VERTEX
  8
0
 10
4.15597
 20
10.87
 30
0.0
 40
0
 41
0
  0
SEQEND
 8
0
  0
POLYLINE
  8
0
 62
     250
 66
     1
 10
0
 20
0
 30
0.0
 70
     1
 40
0
 41
0
  0
VERTEX
  8
0
 10
4.81689
 20
14.1161
 30
0.0
 40
0
 41
0
  0
VERTEX
  8
0
 10
4.23649
 20
14.4265
 30
0.0
 40
0
 41
0
  0
VERTEX
  8
0
 10
4.19894
 20
14.4104
 30
0.0
 40
0
 41
0
  0
VERTEX
  8
0
 10
4.08886
 20
14.3564
 30
0.0
 40
0
 41
0
  0
VERTEX
  8
0
 10
3.95768
 20
14.2796
 30
0.0
 40
0
 41
0
  0
VERTEX
  8
0
 10
3.84392
 20
14.1963
 30
0.0
 40
0
 41
0
  0
VERTEX
  8
0
 10
3.74858
 20
14.1061
 30
0.0
 40
0
 41
0
  0
VERTEX
  8
0
 10
3.67269
 20
14.0093
 30
0.0
 40
0
 41
0
  0
VERTEX
  8
0
 10
3.61724
 20
13.906
 30
0.0
 40
0
 41
0
  0
VERTEX
  8
0
 10
3.58322
 20
13.7961
 30
0.0
 40
0
 41
0
  0
VERTEX
  8
0
 10
3.57167
 20
13.7088
 30
0.0
 40
0
 41
0
  0
VERTEX
  8
0
 10
3.57167
 20
13.6796
 30
0.0
 40
0
 41
0
  0
VERTEX
  8
0
 10
4.40272
 20
13.726
 30
0.0
 40
0
 41
0
  0
VERTEX
  8
0
 10
4.41032
 20
13.7561
 30
0.0
 40
0
 41
0
  0
VERTEX
  8
0
 10
4.45383
 20
13.841
 30
0.0
 40
0
 41
0
  0
VERTEX
  8
0
 10
4.54275
 20
13.9442
 30
0.0
 40
0
 41
0
  0
VERTEX
  8
0
 10
4.66521
 20
14.0358
 30
0.0
 40
0
 41
0
  0
VERTEX
  8
0
 10
4.77789
 20
14.0985
 30
0.0
 40
0
 41
0
  0
VERTEX
  8
0
 10
4.81689
 20
14.1161
 30
0.0
 40
0
 41
0
  0
SEQEND
 8
0
  0
POLYLINE
  8
0
 62
     250
 66
     1
 10
0
 20
0
 30
0.0
 70
     1
 40
0
 41
0
  0
VERTEX
  8
0
 10
8.30126
 20
13.7254
 30
0.0
 40
0
 41
0
  0
VERTEX
  8
0
 10
9.12121
 20
13.6797
 30
0.0
 40
0
 41
0
  0
VERTEX
  8
0
 10
9.12121
 20
13.7088
 30
0.0
 40
0
 41
0
  0
VERTEX
  8
0
 10
9.1096
 20
13.7962
 30
0.0
 40
0
 41
0
  0
VERTEX
  8
0
 10
9.07557
 20
13.906
 30
0.0
 40
0
 41
0
  0
VERTEX
  8
0
 10
9.02012
 20
14.0094
 30
0.0
 40
0
 41
0
  0
VERTEX
  8
0
 10
8.94422
 20
14.1061
 30
0.0
 40
0
 41
0
  0
VERTEX
  8
0
 10
8.8489
 20
14.1961
 30
0.0
 40
0
 41
0
  0
VERTEX
  8
0
 10
8.73514
 20
14.2796
 30
0.0
 40
0
 41
0
  0
VERTEX
  8
0
 10
8.60394
 20
14.3564
 30
0.0
 40
0
 41
0
  0
VERTEX
  8
0
 10
8.49388
 20
14.4104
 30
0.0
 40
0
 41
0
  0
VERTEX
  8
0
 10
8.45638
 20
14.4264
 30
0.0
 40
0
 41
0
  0
VERTEX
  8
0
 10
7.88889
 20
14.1231
 30
0.0
 40
0
 41
0
  0
VERTEX
  8
0
 10
7.92796
 20
14.1053
 30
0.0
 40
0
 41
0
  0
VERTEX
  8
0
 10
8.04081
 20
14.0418
 30
0.0
 40
0
 41
0
  0
VERTEX
  8
0
 10
8.16292
 20
13.9486
 30
0.0
 40
0
 41
0
  0
VERTEX
  8
0
 10
8.25108
 20
13.8433
 30
0.0
 40
0
 41
0
  0
VERTEX
  8
0
 10
8.29389
 20
13.7561
 30
0.0
 40
0
 41
0
  0
VERTEX
  8
0
 10
8.30126
 20
13.7254
 30
0.0
 40
0
 41
0
  0
SEQEND
 8
0
  0
POLYLINE
  8
0
 62
     250
 66
     1
 10
0
 20
0
 30
0.0
 70
     1
 40
0
 41
0
  0
VERTEX
  8
0
 10
6.29856
 20
14.3747
 30
0.0
 40
0
 41
0
  0
VERTEX
  8
0
 10
6.33176
 20
14.3747
 30
0.0
 40
0
 41
0
  0
VERTEX
  8
0
 10
6.43147
 20
14.3735
 30
0.0
 40
0
 41
0
  0
VERTEX
  8
0
 10
6.57639
 20
14.3696
 30
0.0
 40
0
 41
0
  0
VERTEX
  8
0
 10
6.72054
 20
14.3632
 30
0.0
 40
0
 41
0
  0
VERTEX
  8
0
 10
6.81847
 20
14.3571
 30
0.0
 40
0
 41
0
  0
VERTEX
  8
0
 10
6.85107
 20
14.3544
 30
0.0
 40
0
 41
0
  0
VERTEX
  8
0
 10
7.07568
 20
14.7274
 30
0.0
 40
0
 41
0
  0
VERTEX
  8
0
 10
7.02929
 20
14.7313
 30
0.0
 40
0
 41
0
  0
VERTEX
  8
0
 10
6.89003
 20
14.7401
 30
0.0
 40
0
 41
0
  0
VERTEX
  8
0
 10
6.68782
 20
14.7492
 30
0.0
 40
0
 41
0
  0
VERTEX
  8
0
 10
6.48199
 20
14.7546
 30
0.0
 40
0
 41
0
  0
VERTEX
  8
0
 10
6.33447
 20
14.7564
 30
0.0
 40
0
 41
0
  0
VERTEX
  8
0
 10
6.28532
 20
14.7564
 30
0.0
 40
0
 41
0
  0
VERTEX
  8
0
 10
6.22965
 20
14.7564
 30
0.0
 40
0
 41
0
  0
VERTEX
  8
0
 10
6.06282
 20
14.7536
 30
0.0
 40
0
 41
0
  0
VERTEX
  8
0
 10
5.85818
 20
14.745
 30
0.0
 40
0
 41
0
  0
VERTEX
  8
0
 10
5.65956
 20
14.7308
 30
0.0
 40
0
 41
0
  0
VERTEX
  8
0
 10
5.50635
 20
14.7164
 30
0.0
 40
0
 41
0
  0
VERTEX
  8
0
 10
5.4554
 20
14.711
 30
0.0
 40
0
 41
0
  0
VERTEX
  8
0
 10
5.74311
 20
14.3406
 30
0.0
 40
0
 41
0
  0
VERTEX
  8
0
 10
5.77886
 20
14.3444
 30
0.0
 40
0
 41
0
  0
VERTEX
  8
0
 10
5.88639
 20
14.3554
 30
0.0
 40
0
 41
0
  0
VERTEX
  8
0
 10
6.0191
 20
14.3661
 30
0.0
 40
0
 41
0
  0
VERTEX
  8
0
 10
6.15267
 20
14.3726
 30
0.0
 40
0
 41
0
  0
VERTEX
  8
0
 10
6.26204
 20
14.3747
 30
0.0
 40
0
 41
0
  0
VERTEX
  8
0
 10
6.29856
 20
14.3747
 30
0.0
 40
0
 41
0
  0
SEQEND
 8
0
  0
POLYLINE
  8
0
 62
     250
 66
     1
 10
0
 20
0
 30
0.0
 70
     1
 40
0
 41
0
  0
VERTEX
  8
0
 10
10.8197
 20
4.42492
 30
0.0
 40
0
 41
0
  0
VERTEX
  8
0
 10
10.8197
 20
4.06381
 30
0.0
 40
0
 41
0
  0
VERTEX
  8
0
 10
9.78836
 20
4.06381
 30
0.0
 40
0
 41
0
  0
VERTEX
  8
0
 10
9.78836
 20
3.64518
 30
0.0
 40
0
 41
0
  0
VERTEX
  8
0
 10
10.7349
 20
3.64518
 30
0.0
 40
0
 41
0
  0
VERTEX
  8
0
 10
10.7349
 20
3.31142
 30
0.0
 40
0
 41
0
  0
VERTEX
  8
0
 10
9.78836
 20
3.31142
 30
0.0
 40
0
 41
0
  0
VERTEX
  8
0
 10
9.78836
 20
2.83268
 30
0.0
 40
0
 41
0
  0
VERTEX
  8
0
 10
10.8416
 20
2.83268
 30
0.0
 40
0
 41
0
  0
VERTEX
  8
0
 10
10.8416
 20
2.47157
 30
0.0
 40
0
 41
0
  0
VERTEX
  8
0
 10
9.35883
 20
2.47157
 30
0.0
 40
0
 41
0
  0
VERTEX
  8
0
 10
9.35883
 20
4.42492
 30
0.0
 40
0
 41
0
  0
VERTEX
  8
0
 10
10.8197
 20
4.42492
 30
0.0
 40
0
 41
0
  0
SEQEND
 8
0
  0
POLYLINE
  8
0
 62
     250
 66
     1
 10
0
 20
0
 30
0.0
 70
     1
 40
0
 41
0
  0
VERTEX
  8
0
 10
8.2405
 20
4.42492
 30
0.0
 40
0
 41
0
  0
VERTEX
  8
0
 10
8.2405
 20
2.83268
 30
0.0
 40
0
 41
0
  0
VERTEX
  8
0
 10
9.19254
 20
2.83268
 30
0.0
 40
0
 41
0
  0
VERTEX
  8
0
 10
9.19254
 20
2.47157
 30
0.0
 40
0
 41
0
  0
VERTEX
  8
0
 10
7.81099
 20
2.47157
 30
0.0
 40
0
 41
0
  0
VERTEX
  8
0
 10
7.81099
 20
4.42492
 30
0.0
 40
0
 41
0
  0
VERTEX
  8
0
 10
8.2405
 20
4.42492
 30
0.0
 40
0
 41
0
  0
SEQEND
 8
0
  0
POLYLINE
  8
0
 62
     250
 66
     1
 10
0
 20
0
 30
0.0
 70
     1
 40
0
 41
0
  0
VERTEX
  8
0
 10
6.85764
 20
2.80533
 30
0.0
 40
0
 41
0
  0
VERTEX
  8
0
 10
6.88769
 20
2.80533
 30
0.0
 40
0
 41
0
  0
VERTEX
  8
0
 10
6.96843
 20
2.8156
 30
0.0
 40
0
 41
0
  0
VERTEX
  8
0
 10
6.97803
 20
2.81765
 30
0.0
 40
0
 41
0
  0
VERTEX
  8
0
 10
6.98757
 20
2.81972
 30
0.0
 40
0
 41
0
  0
VERTEX
  8
0
 10
7.03201
 20
2.8341
 30
0.0
 40
0
 41
0
  0
VERTEX
  8
0
 10
7.07189
 20
2.85389
 30
0.0
 40
0
 41
0
  0
VERTEX
  8
0
 10
7.07921
 20
2.85867
 30
0.0
 40
0
 41
0
  0
VERTEX
  8
0
 10
7.08649
 20
2.8635
 30
0.0
 40
0
 41
0
  0
VERTEX
  8
0
 10
7.11849
 20
2.89253
 30
0.0
 40
0
 41
0
  0
VERTEX
  8
0
 10
7.14464
 20
2.92844
 30
0.0
 40
0
 41
0
  0
VERTEX
  8
0
 10
7.14899
 20
2.93664
 30
0.0
 40
0
 41
0
  0
VERTEX
  8
0
 10
7.15326
 20
2.94488
 30
0.0
 40
0
 41
0
  0
VERTEX
  8
0
 10
7.16846
 20
2.99274
 30
0.0
 40
0
 41
0
  0
VERTEX
  8
0
 10
7.17497
 20
3.04508
 30
0.0
 40
0
 41
0
  0
VERTEX
  8
0
 10
7.17497
 20
3.0625
 30
0.0
 40
0
 41
0
  0
VERTEX
  8
0
 10
7.17497
 20
3.07997
 30
0.0
 40
0
 41
0
  0
VERTEX
  8
0
 10
7.16965
 20
3.13232
 30
0.0
 40
0
 41
0
  0
VERTEX
  8
0
 10
7.15375
 20
3.1914
 30
0.0
 40
0
 41
0
  0
VERTEX
  8
0
 10
7.12722
 20
3.23975
 30
0.0
 40
0
 41
0
  0
VERTEX
  8
0
 10
7.10053
 20
3.26938
 30
0.0
 40
0
 41
0
  0
VERTEX
  8
0
 10
7.09017
 20
3.27724
 30
0.0
 40
0
 41
0
  0
VERTEX
  8
0
 10
7.07601
 20
3.28797
 30
0.0
 40
0
 41
0
  0
VERTEX
  8
0
 10
6.99164
 20
3.32547
 30
0.0
 40
0
 41
0
  0
VERTEX
  8
0
 10
6.89725
 20
3.34153
 30
0.0
 40
0
 41
0
  0
VERTEX
  8
0
 10
6.86583
 20
3.34153
 30
0.0
 40
0
 41
0
  0
VERTEX
  8
0
 10
6.39806
 20
3.34153
 30
0.0
 40
0
 41
0
  0
VERTEX
  8
0
 10
6.39806
 20
2.80533
 30
0.0
 40
0
 41
0
  0
VERTEX
  8
0
 10
6.85764
 20
2.80533
 30
0.0
 40
0
 41
0
  0
SEQEND
 8
0
  0
POLYLINE
  8
0
 62
     250
 66
     1
 10
0
 20
0
 30
0.0
 70
     1
 40
0
 41
0
  0
VERTEX
  8
0
 10
6.83301
 20
3.63428
 30
0.0
 40
0
 41
0
  0
VERTEX
  8
0
 10
6.85915
 20
3.63428
 30
0.0
 40
0
 41
0
  0
VERTEX
  8
0
 10
6.93767
 20
3.64794
 30
0.0
 40
0
 41
0
  0
VERTEX
  8
0
 10
7.0095
 20
3.67985
 30
0.0
 40
0
 41
0
  0
VERTEX
  8
0
 10
7.02181
 20
3.68896
 30
0.0
 40
0
 41
0
  0
VERTEX
  8
0
 10
7.03076
 20
3.69564
 30
0.0
 40
0
 41
0
  0
VERTEX
  8
0
 10
7.0541
 20
3.7206
 30
0.0
 40
0
 41
0
  0
VERTEX
  8
0
 10
7.07715
 20
3.76079
 30
0.0
 40
0
 41
0
  0
VERTEX
  8
0
 10
7.09099
 20
3.80957
 30
0.0
 40
0
 41
0
  0
VERTEX
  8
0
 10
7.09565
 20
3.85254
 30
0.0
 40
0
 41
0
  0
VERTEX
  8
0
 10
7.09565
 20
3.86681
 30
0.0
 40
0
 41
0
  0
VERTEX
  8
0
 10
7.09565
 20
3.88238
 30
0.0
 40
0
 41
0
  0
VERTEX
  8
0
 10
7.08946
 20
3.92904
 30
0.0
 40
0
 41
0
  0
VERTEX
  8
0
 10
7.07508
 20
3.97168
 30
0.0
 40
0
 41
0
  0
VERTEX
  8
0
 10
7.07101
 20
3.97894
 30
0.0
 40
0
 41
0
  0
VERTEX
  8
0
 10
7.06689
 20
3.98628
 30
0.0
 40
0
 41
0
  0
VERTEX
  8
0
 10
7.04226
 20
4.01796
 30
0.0
 40
0
 41
0
  0
VERTEX
  8
0
 10
7.01221
 20
4.04329
 30
0.0
 40
0
 41
0
  0
VERTEX
  8
0
 10
7.00537
 20
4.04736
 30
0.0
 40
0
 41
0
  0
VERTEX
  8
0
 10
6.99854
 20
4.05149
 30
0.0
 40
0
 41
0
  0
VERTEX
  8
0
 10
6.91986
 20
4.07997
 30
0.0
 40
0
 41
0
  0
VERTEX
  8
0
 10
6.91097
 20
4.08154
 30
0.0
 40
0
 41
0
  0
VERTEX
  8
0
 10
6.90207
 20
4.08317
 30
0.0
 40
0
 41
0
  0
VERTEX
  8
0
 10
6.82563
 20
4.09115
 30
0.0
 40
0
 41
0
  0
VERTEX
  8
0
 10
6.80018
 20
4.09115
 30
0.0
 40
0
 41
0
  0
VERTEX
  8
0
 10
6.39806
 20
4.09115
 30
0.0
 40
0
 41
0
  0
VERTEX
  8
0
 10
6.39806
 20
3.63428
 30
0.0
 40
0
 41
0
  0
VERTEX
  8
0
 10
6.83301
 20
3.63428
 30
0.0
 40
0
 41
0
  0
SEQEND
 8
0
  0
POLYLINE
  8
0
 62
     250
 66
     1
 10
0
 20
0
 30
0.0
 70
     1
 40
0
 41
0
  0
VERTEX
  8
0
 10
6.88775
 20
4.42492
 30
0.0
 40
0
 41
0
  0
VERTEX
  8
0
 10
6.95133
 20
4.42492
 30
0.0
 40
0
 41
0
  0
VERTEX
  8
0
 10
7.12299
 20
4.4044
 30
0.0
 40
0
 41
0
  0
VERTEX
  8
0
 10
7.14214
 20
4.40028
 30
0.0
 40
0
 41
0
  0
VERTEX
  8
0
 10
7.16129
 20
4.39621
 30
0.0
 40
0
 41
0
  0
VERTEX
  8
0
 10
7.24881
 20
4.36778
 30
0.0
 40
0
 41
0
  0
VERTEX
  8
0
 10
7.32542
 20
4.32894
 30
0.0
 40
0
 41
0
  0
VERTEX
  8
0
 10
7.33914
 20
4.31956
 30
0.0
 40
0
 41
0
  0
VERTEX
  8
0
 10
7.35281
 20
4.31022
 30
0.0
 40
0
 41
0
  0
VERTEX
  8
0
 10
7.41194
 20
4.25424
 30
0.0
 40
0
 41
0
  0
VERTEX
  8
0
 10
7.45876
 20
4.18599
 30
0.0
 40
0
 41
0
  0
VERTEX
  8
0
 10
7.46631
 20
4.17046
 30
0.0
 40
0
 41
0
  0
VERTEX
  8
0
 10
7.47379
 20
4.155
 30
0.0
 40
0
 41
0
  0
VERTEX
  8
0
 10
7.50017
 20
4.06651
 30
0.0
 40
0
 41
0
  0
VERTEX
  8
0
 10
7.51144
 20
3.97211
 30
0.0
 40
0
 41
0
  0
VERTEX
  8
0
 10
7.51144
 20
3.94065
 30
0.0
 40
0
 41
0
  0
VERTEX
  8
0
 10
7.51144
 20
3.90685
 30
0.0
 40
0
 41
0
  0
VERTEX
  8
0
 10
7.49468
 20
3.80528
 30
0.0
 40
0
 41
0
  0
VERTEX
  8
0
 10
7.45557
 20
3.71089
 30
0.0
 40
0
 41
0
  0
VERTEX
  8
0
 10
7.44444
 20
3.69444
 30
0.0
 40
0
 41
0
  0
VERTEX
  8
0
 10
7.43326
 20
3.67806
 30
0.0
 40
0
 41
0
  0
VERTEX
  8
0
 10
7.36133
 20
3.60487
 30
0.0
 40
0
 41
0
  0
VERTEX
  8
0
 10
7.26796
 20
3.54357
 30
0.0
 40
0
 41
0
  0
VERTEX
  8
0
 10
7.2461
 20
3.53304
 30
0.0
 40
0
 41
0
  0
VERTEX
  8
0
 10
7.27615
 20
3.52442
 30
0.0
 40
0
 41
0
  0
VERTEX
  8
0
 10
7.40369
 20
3.46158
 30
0.0
 40
0
 41
0
  0
VERTEX
  8
0
 10
7.50071
 20
3.37278
 30
0.0
 40
0
 41
0
  0
VERTEX
  8
0
 10
7.51557
 20
3.35113
 30
0.0
 40
0
 41
0
  0
VERTEX
  8
0
 10
7.53039
 20
3.32949
 30
0.0
 40
0
 41
0
  0
VERTEX
  8
0
 10
7.58225
 20
3.20785
 30
0.0
 40
0
 41
0
  0
VERTEX
  8
0
 10
7.60449
 20
3.0804
 30
0.0
 40
0
 41
0
  0
VERTEX
  8
0
 10
7.60449
 20
3.03788
 30
0.0
 40
0
 41
0
  0
VERTEX
  8
0
 10
7.60449
 20
3.00342
 30
0.0
 40
0
 41
0
  0
VERTEX
  8
0
 10
7.59011
 20
2.90007
 30
0.0
 40
0
 41
0
  0
VERTEX
  8
0
 10
7.55658
 20
2.80007
 30
0.0
 40
0
 41
0
  0
VERTEX
  8
0
 10
7.54704
 20
2.78207
 30
0.0
 40
0
 41
0
  0
VERTEX
  8
0
 10
7.53743
 20
2.76406
 30
0.0
 40
0
 41
0
  0
VERTEX
  8
0
 10
7.47965
 20
2.68392
 30
0.0
 40
0
 41
0
  0
VERTEX
  8
0
 10
7.40864
 20
2.61703
 30
0.0
 40
0
 41
0
  0
VERTEX
  8
0
 10
7.39247
 20
2.60562
 30
0.0
 40
0
 41
0
  0
VERTEX
  8
0
 10
7.37625
 20
2.59424
 30
0.0
 40
0
 41
0
  0
VERTEX
  8
0
 10
7.28847
 20
2.54617
 30
0.0
 40
0
 41
0
  0
VERTEX
  8
0
 10
7.19157
 20
2.50987
 30
0.0
 40
0
 41
0
  0
VERTEX
  8
0
 10
7.17085
 20
2.50439
 30
0.0
 40
0
 41
0
  0
VERTEX
  8
0
 10
7.15007
 20
2.49897
 30
0.0
 40
0
 41
0
  0
VERTEX
  8
0
 10
6.97379
 20
2.47157
 30
0.0
 40
0
 41
0
  0
VERTEX
  8
0
 10
6.9151
 20
2.47157
 30
0.0
 40
0
 41
0
  0
VERTEX
  8
0
 10
5.96853
 20
2.47157
 30
0.0
 40
0
 41
0
  0
VERTEX
  8
0
 10
5.96853
 20
4.42492
 30
0.0
 40
0
 41
0
  0
VERTEX
  8
0
 10
6.88775
 20
4.42492
 30
0.0
 40
0
 41
0
  0
SEQEND
 8
0
  0
POLYLINE
  8
0
 62
     250
 66
     1
 10
0
 20
0
 30
0.0
 70
     1
 40
0
 41
0
  0
VERTEX
  8
0
 10
4.29596
 20
3.20063
 30
0.0
 40
0
 41
0
  0
VERTEX
  8
0
 10
4.30072
 20
3.18126
 30
0.0
 40
0
 41
0
  0
VERTEX
  8
0
 10
4.33317
 20
3.09017
 30
0.0
 40
0
 41
0
  0
VERTEX
  8
0
 10
4.37706
 20
3.00689
 30
0.0
 40
0
 41
0
  0
VERTEX
  8
0
 10
4.38758
 20
2.99137
 30
0.0
 40
0
 41
0
  0
VERTEX
  8
0
 10
4.39806
 20
2.97586
 30
0.0
 40
0
 41
0
  0
VERTEX
  8
0
 10
4.46001
 20
2.90756
 30
0.0
 40
0
 41
0
  0
VERTEX
  8
0
 10
4.53483
 20
2.85161
 30
0.0
 40
0
 41
0
  0
VERTEX
  8
0
 10
4.55171
 20
2.84229
 30
0.0
 40
0
 41
0
  0
VERTEX
  8
0
 10
4.56858
 20
2.83296
 30
0.0
 40
0
 41
0
  0
VERTEX
  8
0
 10
4.66385
 20
2.80024
 30
0.0
 40
0
 41
0
  0
VERTEX
  8
0
 10
4.76438
 20
2.78618
 30
0.0
 40
0
 41
0
  0
VERTEX
  8
0
 10
4.7979
 20
2.78618
 30
0.0
 40
0
 41
0
  0
VERTEX
  8
0
 10
4.83138
 20
2.78618
 30
0.0
 40
0
 41
0
  0
VERTEX
  8
0
 10
4.93197
 20
2.80024
 30
0.0
 40
0
 41
0
  0
VERTEX
  8
0
 10
5.02729
 20
2.83296
 30
0.0
 40
0
 41
0
  0
VERTEX
  8
0
 10
5.04417
 20
2.84229
 30
0.0
 40
0
 41
0
  0
VERTEX
  8
0
 10
5.06099
 20
2.85161
 30
0.0
 40
0
 41
0
  0
VERTEX
  8
0
 10
5.13574
 20
2.90756
 30
0.0
 40
0
 41
0
  0
VERTEX
  8
0
 10
5.19775
 20
2.97586
 30
0.0
 40
0
 41
0
  0
VERTEX
  8
0
 10
5.20828
 20
2.99137
 30
0.0
 40
0
 41
0
  0
VERTEX
  8
0
 10
5.21875
 20
3.00689
 30
0.0
 40
0
 41
0
  0
VERTEX
  8
0
 10
5.26264
 20
3.09017
 30
0.0
 40
0
 41
0
  0
VERTEX
  8
0
 10
5.29508
 20
3.18126
 30
0.0
 40
0
 41
0
  0
VERTEX
  8
0
 10
5.29992
 20
3.20063
 30
0.0
 40
0
 41
0
  0
VERTEX
  8
0
 10
5.30469
 20
3.22006
 30
0.0
 40
0
 41
0
  0
VERTEX
  8
0
 10
5.32867
 20
3.3851
 30
0.0
 40
0
 41
0
  0
VERTEX
  8
0
 10
5.32867
 20
3.44006
 30
0.0
 40
0
 41
0
  0
VERTEX
  8
0
 10
5.32867
 20
3.50228
 30
0.0
 40
0
 41
0
  0
VERTEX
  8
0
 10
5.30469
 20
3.66889
 30
0.0
 40
0
 41
0
  0
VERTEX
  8
0
 10
5.29992
 20
3.68896
 30
0.0
 40
0
 41
0
  0
VERTEX
  8
0
 10
5.29508
 20
3.70904
 30
0.0
 40
0
 41
0
  0
VERTEX
  8
0
 10
5.26264
 20
3.8029
 30
0.0
 40
0
 41
0
  0
VERTEX
  8
0
 10
5.21875
 20
3.88803
 30
0.0
 40
0
 41
0
  0
VERTEX
  8
0
 10
5.20828
 20
3.90375
 30
0.0
 40
0
 41
0
  0
VERTEX
  8
0
 10
5.19775
 20
3.91949
 30
0.0
 40
0
 41
0
  0
VERTEX
  8
0
 10
5.13574
 20
3.98856
 30
0.0
 40
0
 41
0
  0
VERTEX
  8
0
 10
5.06099
 20
4.04486
 30
0.0
 40
0
 41
0
  0
VERTEX
  8
0
 10
5.04417
 20
4.05419
 30
0.0
 40
0
 41
0
  0
VERTEX
  8
0
 10
5.02729
 20
4.06358
 30
0.0
 40
0
 41
0
  0
VERTEX
  8
0
 10
4.93197
 20
4.09631
 30
0.0
 40
0
 41
0
  0
VERTEX
  8
0
 10
4.83138
 20
4.11029
 30
0.0
 40
0
 41
0
  0
VERTEX
  8
0
 10
4.7979
 20
4.11029
 30
0.0
 40
0
 41
0
  0
VERTEX
  8
0
 10
4.76438
 20
4.11029
 30
0.0
 40
0
 41
0
  0
VERTEX
  8
0
 10
4.66385
 20
4.09631
 30
0.0
 40
0
 41
0
  0
VERTEX
  8
0
 10
4.56858
 20
4.06358
 30
0.0
 40
0
 41
0
  0
VERTEX
  8
0
 10
4.55171
 20
4.05419
 30
0.0
 40
0
 41
0
  0
VERTEX
  8
0
 10
4.53483
 20
4.04486
 30
0.0
 40
0
 41
0
  0
VERTEX
  8
0
 10
4.46001
 20
3.98856
 30
0.0
 40
0
 41
0
  0
VERTEX
  8
0
 10
4.39806
 20
3.91949
 30
0.0
 40
0
 41
0
  0
VERTEX
  8
0
 10
4.38758
 20
3.90375
 30
0.0
 40
0
 41
0
  0
VERTEX
  8
0
 10
4.37706
 20
3.88803
 30
0.0
 40
0
 41
0
  0
VERTEX
  8
0
 10
4.33317
 20
3.8029
 30
0.0
 40
0
 41
0
  0
VERTEX
  8
0
 10
4.30072
 20
3.70904
 30
0.0
 40
0
 41
0
  0
VERTEX
  8
0
 10
4.29596
 20
3.68896
 30
0.0
 40
0
 41
0
  0
VERTEX
  8
0
 10
4.29113
 20
3.66889
 30
0.0
 40
0
 41
0
  0
VERTEX
  8
0
 10
4.26719
 20
3.49729
 30
0.0
 40
0
 41
0
  0
VERTEX
  8
0
 10
4.26719
 20
3.44006
 30
0.0
 40
0
 41
0
  0
VERTEX
  8
0
 10
4.26719
 20
3.38021
 30
0.0
 40
0
 41
0
  0
VERTEX
  8
0
 10
4.29113
 20
3.22006
 30
0.0
 40
0
 41
0
  0
VERTEX
  8
0
 10
4.29596
 20
3.20063
 30
0.0
 40
0
 41
0
  0
SEQEND
 8
0
  0
POLYLINE
  8
0
 62
     250
 66
     1
 10
0
 20
0
 30
0.0
 70
     1
 40
0
 41
0
  0
VERTEX
  8
0
 10
3.90338
 20
3.84631
 30
0.0
 40
0
 41
0
  0
VERTEX
  8
0
 10
3.91428
 20
3.87756
 30
0.0
 40
0
 41
0
  0
VERTEX
  8
0
 10
3.98335
 20
4.02171
 30
0.0
 40
0
 41
0
  0
VERTEX
  8
0
 10
4.07156
 20
4.14996
 30
0.0
 40
0
 41
0
  0
VERTEX
  8
0
 10
4.09212
 20
4.17318
 30
0.0
 40
0
 41
0
  0
VERTEX
  8
0
 10
4.11263
 20
4.19646
 30
0.0
 40
0
 41
0
  0
VERTEX
  8
0
 10
4.22922
 20
4.29769
 30
0.0
 40
0
 41
0
  0
VERTEX
  8
0
 10
4.36453
 20
4.37885
 30
0.0
 40
0
 41
0
  0
VERTEX
  8
0
 10
4.39442
 20
4.39204
 30
0.0
 40
0
 41
0
  0
VERTEX
  8
0
 10
4.42426
 20
4.40528
 30
0.0
 40
0
 41
0
  0
VERTEX
  8
0
 10
4.58485
 20
4.45161
 30
0.0
 40
0
 41
0
  0
VERTEX
  8
0
 10
4.74463
 20
4.4714
 30
0.0
 40
0
 41
0
  0
VERTEX
  8
0
 10
4.7979
 20
4.4714
 30
0.0
 40
0
 41
0
  0
VERTEX
  8
0
 10
4.85157
 20
4.4714
 30
0.0
 40
0
 41
0
  0
VERTEX
  8
0
 10
5.01264
 20
4.45161
 30
0.0
 40
0
 41
0
  0
VERTEX
  8
0
 10
5.17312
 20
4.40528
 30
0.0
 40
0
 41
0
  0
VERTEX
  8
0
 10
5.20281
 20
4.39204
 30
0.0
 40
0
 41
0
  0
VERTEX
  8
0
 10
5.23242
 20
4.37885
 30
0.0
 40
0
 41
0
  0
VERTEX
  8
0
 10
5.36692
 20
4.29769
 30
0.0
 40
0
 41
0
  0
VERTEX
  8
0
 10
5.48318
 20
4.19646
 30
0.0
 40
0
 41
0
  0
VERTEX
  8
0
 10
5.50375
 20
4.17318
 30
0.0
 40
0
 41
0
  0
VERTEX
  8
0
 10
5.52425
 20
4.14996
 30
0.0
 40
0
 41
0
  0
VERTEX
  8
0
 10
5.61247
 20
4.02171
 30
0.0
 40
0
 41
0
  0
VERTEX
  8
0
 10
5.68153
 20
3.87756
 30
0.0
 40
0
 41
0
  0
VERTEX
  8
0
 10
5.69249
 20
3.84631
 30
0.0
 40
0
 41
0
  0
VERTEX
  8
0
 10
5.7034
 20
3.81511
 30
0.0
 40
0
 41
0
  0
VERTEX
  8
0
 10
5.74169
 20
3.65104
 30
0.0
 40
0
 41
0
  0
VERTEX
  8
0
 10
5.75814
 20
3.49283
 30
0.0
 40
0
 41
0
  0
VERTEX
  8
0
 10
5.75814
 20
3.44006
 30
0.0
 40
0
 41
0
  0
VERTEX
  8
0
 10
5.75814
 20
3.38851
 30
0.0
 40
0
 41
0
  0
VERTEX
  8
0
 10
5.74169
 20
3.23383
 30
0.0
 40
0
 41
0
  0
VERTEX
  8
0
 10
5.7034
 20
3.07281
 30
0.0
 40
0
 41
0
  0
VERTEX
  8
0
 10
5.69249
 20
3.04199
 30
0.0
 40
0
 41
0
  0
VERTEX
  8
0
 10
5.68153
 20
3.01124
 30
0.0
 40
0
 41
0
  0
VERTEX
  8
0
 10
5.61247
 20
2.86931
 30
0.0
 40
0
 41
0
  0
VERTEX
  8
0
 10
5.52425
 20
2.74333
 30
0.0
 40
0
 41
0
  0
VERTEX
  8
0
 10
5.50375
 20
2.72054
 30
0.0
 40
0
 41
0
  0
VERTEX
  8
0
 10
5.48318
 20
2.69775
 30
0.0
 40
0
 41
0
  0
VERTEX
  8
0
 10
5.36692
 20
2.59842
 30
0.0
 40
0
 41
0
  0
VERTEX
  8
0
 10
5.23242
 20
2.51878
 30
0.0
 40
0
 41
0
  0
VERTEX
  8
0
 10
5.20281
 20
2.50575
 30
0.0
 40
0
 41
0
  0
VERTEX
  8
0
 10
5.17312
 20
2.49278
 30
0.0
 40
0
 41
0
  0
VERTEX
  8
0
 10
5.01264
 20
2.44732
 30
0.0
 40
0
 41
0
  0
VERTEX
  8
0
 10
4.85157
 20
2.42779
 30
0.0
 40
0
 41
0
  0
VERTEX
  8
0
 10
4.7979
 20
2.42779
 30
0.0
 40
0
 41
0
  0
VERTEX
  8
0
 10
4.74463
 20
2.42779
 30
0.0
 40
0
 41
0
  0
VERTEX
  8
0
 10
4.58485
 20
2.44732
 30
0.0
 40
0
 41
0
  0
VERTEX
  8
0
 10
4.42426
 20
2.49278
 30
0.0
 40
0
 41
0
  0
VERTEX
  8
0
 10
4.39442
 20
2.50575
 30
0.0
 40
0
 41
0
  0
VERTEX
  8
0
 10
4.36453
 20
2.51878
 30
0.0
 40
0
 41
0
  0
VERTEX
  8
0
 10
4.22922
 20
2.59842
 30
0.0
 40
0
 41
0
  0
VERTEX
  8
0
 10
4.11263
 20
2.69775
 30
0.0
 40
0
 41
0
  0
VERTEX
  8
0
 10
4.09212
 20
2.72054
 30
0.0
 40
0
 41
0
  0
VERTEX
  8
0
 10
4.07156
 20
2.74333
 30
0.0
 40
0
 41
0
  0
VERTEX
  8
0
 10
3.98335
 20
2.86931
 30
0.0
 40
0
 41
0
  0
VERTEX
  8
0
 10
3.91428
 20
3.01124
 30
0.0
 40
0
 41
0
  0
VERTEX
  8
0
 10
3.90338
 20
3.04199
 30
0.0
 40
0
 41
0
  0
VERTEX
  8
0
 10
3.89242
 20
3.07281
 30
0.0
 40
0
 41
0
  0
VERTEX
  8
0
 10
3.85411
 20
3.23383
 30
0.0
 40
0
 41
0
  0
VERTEX
  8
0
 10
3.83772
 20
3.38851
 30
0.0
 40
0
 41
0
  0
VERTEX
  8
0
 10
3.83772
 20
3.44006
 30
0.0
 40
0
 41
0
  0
VERTEX
  8
0
 10
3.83772
 20
3.49283
 30
0.0
 40
0
 41
0
  0
VERTEX
  8
0
 10
3.85411
 20
3.65104
 30
0.0
 40
0
 41
0
  0
VERTEX
  8
0
 10
3.89242
 20
3.81511
 30
0.0
 40
0
 41
0
  0
VERTEX
  8
0
 10
3.90338
 20
3.84631
 30
0.0
 40
0
 41
0
  0
SEQEND
 8
0
  0
POLYLINE
  8
0
 62
     250
 66
     1
 10
0
 20
0
 30
0.0
 70
     1
 40
0
 41
0
  0
VERTEX
  8
0
 10
2.39361
 20
4.42492
 30
0.0
 40
0
 41
0
  0
VERTEX
  8
0
 10
3.20888
 20
3.11447
 30
0.0
 40
0
 41
0
  0
VERTEX
  8
0
 10
3.21431
 20
3.11447
 30
0.0
 40
0
 41
0
  0
VERTEX
  8
0
 10
3.21431
 20
4.42492
 30
0.0
 40
0
 41
0
  0
VERTEX
  8
0
 10
3.61649
 20
4.42492
 30
0.0
 40
0
 41
0
  0
VERTEX
  8
0
 10
3.61649
 20
2.47157
 30
0.0
 40
0
 41
0
  0
VERTEX
  8
0
 10
3.18696
 20
2.47157
 30
0.0
 40
0
 41
0
  0
VERTEX
  8
0
 10
2.37446
 20
3.77924
 30
0.0
 40
0
 41
0
  0
VERTEX
  8
0
 10
2.36903
 20
3.77924
 30
0.0
 40
0
 41
0
  0
VERTEX
  8
0
 10
2.36903
 20
2.47157
 30
0.0
 40
0
 41
0
  0
VERTEX
  8
0
 10
1.96685
 20
2.47157
 30
0.0
 40
0
 41
0
  0
VERTEX
  8
0
 10
1.96685
 20
4.42492
 30
0.0
 40
0
 41
0
  0
VERTEX
  8
0
 10
2.39361
 20
4.42492
 30
0.0
 40
0
 41
0
  0
SEQEND
 8
0
  0
POLYLINE
  8
0
 62
     250
 66
     1
 10
0
 20
0
 30
0.0
 70
     1
 40
0
 41
0
  0
VERTEX
  8
0
 10
10.6413
 20
1.99046
 30
0.0
 40
0
 41
0
  0
VERTEX
  8
0
 10
10.6338
 20
1.99588
 30
0.0
 40
0
 41
0
  0
VERTEX
  8
0
 10
10.5903
 20
2.01486
 30
0.0
 40
0
 41
0
  0
VERTEX
  8
0
 10
10.5426
 20
2.023
 30
0.0
 40
0
 41
0
  0
VERTEX
  8
0
 10
10.5267
 20
2.023
 30
0.0
 40
0
 41
0
  0
VERTEX
  8
0
 10
10.5128
 20
2.023
 30
0.0
 40
0
 41
0
  0
VERTEX
  8
0
 10
10.4756
 20
2.01833
 30
0.0
 40
0
 41
0
  0
VERTEX
  8
0
 10
10.4711
 20
2.01736
 30
0.0
 40
0
 41
0
  0
VERTEX
  8
0
 10
10.4665
 20
2.01644
 30
0.0
 40
0
 41
0
  0
VERTEX
  8
0
 10
10.426
 20
2.00071
 30
0.0
 40
0
 41
0
  0
VERTEX
  8
0
 10
10.4225
 20
1.99849
 30
0.0
 40
0
 41
0
  0
VERTEX
  8
0
 10
10.4189
 20
1.99631
 30
0.0
 40
0
 41
0
  0
VERTEX
  8
0
 10
10.3906
 20
1.96679
 30
0.0
 40
0
 41
0
  0
VERTEX
  8
0
 10
10.3885
 20
1.96311
 30
0.0
 40
0
 41
0
  0
VERTEX
  8
0
 10
10.3864
 20
1.95942
 30
0.0
 40
0
 41
0
  0
VERTEX
  8
0
 10
10.3758
 20
1.92085
 30
0.0
 40
0
 41
0
  0
VERTEX
  8
0
 10
10.3758
 20
1.90793
 30
0.0
 40
0
 41
0
  0
VERTEX
  8
0
 10
10.3758
 20
1.90093
 30
0.0
 40
0
 41
0
  0
VERTEX
  8
0
 10
10.3804
 20
1.87978
 30
0.0
 40
0
 41
0
  0
VERTEX
  8
0
 10
10.3911
 20
1.86074
 30
0.0
 40
0
 41
0
  0
VERTEX
  8
0
 10
10.3942
 20
1.85747
 30
0.0
 40
0
 41
0
  0
VERTEX
  8
0
 10
10.3972
 20
1.85428
 30
0.0
 40
0
 41
0
  0
VERTEX
  8
0
 10
10.4381
 20
1.82796
 30
0.0
 40
0
 41
0
  0
VERTEX
  8
0
 10
10.4433
 20
1.8259
 30
0.0
 40
0
 41
0
  0
VERTEX
  8
0
 10
10.4483
 20
1.82389
 30
0.0
 40
0
 41
0
  0
VERTEX
  8
0
 10
10.5061
 20
1.80697
 30
0.0
 40
0
 41
0
  0
VERTEX
  8
0
 10
10.5126
 20
1.80561
 30
0.0
 40
0
 41
0
  0
VERTEX
  8
0
 10
10.519
 20
1.80431
 30
0.0
 40
0
 41
0
  0
VERTEX
  8
0
 10
10.5846
 20
1.78971
 30
0.0
 40
0
 41
0
  0
VERTEX
  8
0
 10
10.5914
 20
1.78814
 30
0.0
 40
0
 41
0
  0
VERTEX
  8
0
 10
10.598
 20
1.78657
 30
0.0
 40
0
 41
0
  0
VERTEX
  8
0
 10
10.6637
 20
1.76813
 30
0.0
 40
0
 41
0
  0
VERTEX
  8
0
 10
10.6701
 20
1.76594
 30
0.0
 40
0
 41
0
  0
VERTEX
  8
0
 10
10.6765
 20
1.76383
 30
0.0
 40
0
 41
0
  0
VERTEX
  8
0
 10
10.7343
 20
1.73519
 30
0.0
 40
0
 41
0
  0
VERTEX
  8
0
 10
10.7395
 20
1.73156
 30
0.0
 40
0
 41
0
  0
VERTEX
  8
0
 10
10.7446
 20
1.72797
 30
0.0
 40
0
 41
0
  0
VERTEX
  8
0
 10
10.7854
 20
1.68235
 30
0.0
 40
0
 41
0
  0
VERTEX
  8
0
 10
10.7885
 20
1.67681
 30
0.0
 40
0
 41
0
  0
VERTEX
  8
0
 10
10.7916
 20
1.67133
 30
0.0
 40
0
 41
0
  0
VERTEX
  8
0
 10
10.8023
 20
1.6396
 30
0.0
 40
0
 41
0
  0
VERTEX
  8
0
 10
10.8069
 20
1.60531
 30
0.0
 40
0
 41
0
  0
VERTEX
  8
0
 10
10.8069
 20
1.59386
 30
0.0
 40
0
 41
0
  0
VERTEX
  8
0
 10
10.8069
 20
1.58143
 30
0.0
 40
0
 41
0
  0
VERTEX
  8
0
 10
10.8009
 20
1.544
 30
0.0
 40
0
 41
0
  0
VERTEX
  8
0
 10
10.7868
 20
1.50825
 30
0.0
 40
0
 41
0
  0
VERTEX
  8
0
 10
10.7828
 20
1.50185
 30
0.0
 40
0
 41
0
  0
VERTEX
  8
0
 10
10.7788
 20
1.4955
 30
0.0
 40
0
 41
0
  0
VERTEX
  8
0
 10
10.7554
 20
1.46724
 30
0.0
 40
0
 41
0
  0
VERTEX
  8
0
 10
10.7273
 20
1.44363
 30
0.0
 40
0
 41
0
  0
VERTEX
  8
0
 10
10.7211
 20
1.43961
 30
0.0
 40
0
 41
0
  0
VERTEX
  8
0
 10
10.7148
 20
1.4356
 30
0.0
 40
0
 41
0
  0
VERTEX
  8
0
 10
10.6444
 20
1.40653
 30
0.0
 40
0
 41
0
  0
VERTEX
  8
0
 10
10.6366
 20
1.40468
 30
0.0
 40
0
 41
0
  0
VERTEX
  8
0
 10
10.6288
 20
1.40289
 30
0.0
 40
0
 41
0
  0
VERTEX
  8
0
 10
10.565
 20
1.39382
 30
0.0
 40
0
 41
0
  0
VERTEX
  8
0
 10
10.5437
 20
1.39382
 30
0.0
 40
0
 41
0
  0
VERTEX
  8
0
 10
10.5169
 20
1.39382
 30
0.0
 40
0
 41
0
  0
VERTEX
  8
0
 10
10.445
 20
1.40565
 30
0.0
 40
0
 41
0
  0
VERTEX
  8
0
 10
10.4366
 20
1.40799
 30
0.0
 40
0
 41
0
  0
VERTEX
  8
0
 10
10.4282
 20
1.41037
 30
0.0
 40
0
 41
0
  0
VERTEX
  8
0
 10
10.3543
 20
1.44613
 30
0.0
 40
0
 41
0
  0
VERTEX
  8
0
 10
10.348
 20
1.4509
 30
0.0
 40
0
 41
0
  0
VERTEX
  8
0
 10
10.3416
 20
1.45574
 30
0.0
 40
0
 41
0
  0
VERTEX
  8
0
 10
10.3138
 20
1.48372
 30
0.0
 40
0
 41
0
  0
VERTEX
  8
0
 10
10.2913
 20
1.51708
 30
0.0
 40
0
 41
0
  0
VERTEX
  8
0
 10
10.2876
 20
1.52453
 30
0.0
 40
0
 41
0
  0
VERTEX
  8
0
 10
10.2839
 20
1.53201
 30
0.0
 40
0
 41
0
  0
VERTEX
  8
0
 10
10.2709
 20
1.57346
 30
0.0
 40
0
 41
0
  0
VERTEX
  8
0
 10
10.2654
 20
1.61632
 30
0.0
 40
0
 41
0
  0
VERTEX
  8
0
 10
10.2654
 20
1.63058
 30
0.0
 40
0
 41
0
  0
VERTEX
  8
0
 10
10.3503
 20
1.63058
 30
0.0
 40
0
 41
0
  0
VERTEX
  8
0
 10
10.3503
 20
1.62076
 30
0.0
 40
0
 41
0
  0
VERTEX
  8
0
 10
10.3544
 20
1.59115
 30
0.0
 40
0
 41
0
  0
VERTEX
  8
0
 10
10.364
 20
1.56267
 30
0.0
 40
0
 41
0
  0
VERTEX
  8
0
 10
10.3668
 20
1.55751
 30
0.0
 40
0
 41
0
  0
VERTEX
  8
0
 10
10.3695
 20
1.5524
 30
0.0
 40
0
 41
0
  0
VERTEX
  8
0
 10
10.4057
 20
1.51036
 30
0.0
 40
0
 41
0
  0
VERTEX
  8
0
 10
10.4102
 20
1.50706
 30
0.0
 40
0
 41
0
  0
VERTEX
  8
0
 10
10.4147
 20
1.50375
 30
0.0
 40
0
 41
0
  0
VERTEX
  8
0
 10
10.467
 20
1.47939
 30
0.0
 40
0
 41
0
  0
VERTEX
  8
0
 10
10.473
 20
1.47781
 30
0.0
 40
0
 41
0
  0
VERTEX
  8
0
 10
10.4789
 20
1.47624
 30
0.0
 40
0
 41
0
  0
VERTEX
  8
0
 10
10.5296
 20
1.46838
 30
0.0
 40
0
 41
0
  0
VERTEX
  8
0
 10
10.5466
 20
1.46838
 30
0.0
 40
0
 41
0
  0
VERTEX
  8
0
 10
10.5617
 20
1.46838
 30
0.0
 40
0
 41
0
  0
VERTEX
  8
0
 10
10.6023
 20
1.4731
 30
0.0
 40
0
 41
0
  0
VERTEX
  8
0
 10
10.6074
 20
1.47401
 30
0.0
 40
0
 41
0
  0
VERTEX
  8
0
 10
10.6125
 20
1.47499
 30
0.0
 40
0
 41
0
  0
VERTEX
  8
0
 10
10.6584
 20
1.4911
 30
0.0
 40
0
 41
0
  0
VERTEX
  8
0
 10
10.6625
 20
1.49338
 30
0.0
 40
0
 41
0
  0
VERTEX
  8
0
 10
10.6666
 20
1.49567
 30
0.0
 40
0
 41
0
  0
VERTEX
  8
0
 10
10.6997
 20
1.52675
 30
0.0
 40
0
 41
0
  0
VERTEX
  8
0
 10
10.7022
 20
1.53065
 30
0.0
 40
0
 41
0
  0
VERTEX
  8
0
 10
10.7047
 20
1.53461
 30
0.0
 40
0
 41
0
  0
VERTEX
  8
0
 10
10.7135
 20
1.55751
 30
0.0
 40
0
 41
0
  0
VERTEX
  8
0
 10
10.7173
 20
1.58262
 30
0.0
 40
0
 41
0
  0
VERTEX
  8
0
 10
10.7173
 20
1.59099
 30
0.0
 40
0
 41
0
  0
VERTEX
  8
0
 10
10.7173
 20
1.5989
 30
0.0
 40
0
 41
0
  0
VERTEX
  8
0
 10
10.7127
 20
1.62261
 30
0.0
 40
0
 41
0
  0
VERTEX
  8
0
 10
10.7019
 20
1.64404
 30
0.0
 40
0
 41
0
  0
VERTEX
  8
0
 10
10.6989
 20
1.64762
 30
0.0
 40
0
 41
0
  0
VERTEX
  8
0
 10
10.6958
 20
1.65126
 30
0.0
 40
0
 41
0
  0
VERTEX
  8
0
 10
10.6549
 20
1.68072
 30
0.0
 40
0
 41
0
  0
VERTEX
  8
0
 10
10.6498
 20
1.683
 30
0.0
 40
0
 41
0
  0
VERTEX
  8
0
 10
10.6447
 20
1.68528
 30
0.0
 40
0
 41
0
  0
VERTEX
  8
0
 10
10.5869
 20
1.70372
 30
0.0
 40
0
 41
0
  0
VERTEX
  8
0
 10
10.5805
 20
1.70514
 30
0.0
 40
0
 41
0
  0
VERTEX
  8
0
 10
10.5741
 20
1.70654
 30
0.0
 40
0
 41
0
  0
VERTEX
  8
0
 10
10.5084
 20
1.72114
 30
0.0
 40
0
 41
0
  0
VERTEX
  8
0
 10
10.5017
 20
1.7226
 30
0.0
 40
0
 41
0
  0
VERTEX
  8
0
 10
10.495
 20
1.72413
 30
0.0
 40
0
 41
0
  0
VERTEX
  8
0
 10
10.4294
 20
1.74137
 30
0.0
 40
0
 41
0
  0
VERTEX
  8
0
 10
10.423
 20
1.74333
 30
0.0
 40
0
 41
0
  0
VERTEX
  8
0
 10
10.4165
 20
1.74533
 30
0.0
 40
0
 41
0
  0
VERTEX
  8
0
 10
10.3587
 20
1.77126
 30
0.0
 40
0
 41
0
  0
VERTEX
  8
0
 10
10.3536
 20
1.77447
 30
0.0
 40
0
 41
0
  0
VERTEX
  8
0
 10
10.3485
 20
1.77772
 30
0.0
 40
0
 41
0
  0
VERTEX
  8
0
 10
10.3076
 20
1.81933
 30
0.0
 40
0
 41
0
  0
VERTEX
  8
0
 10
10.3046
 20
1.82443
 30
0.0
 40
0
 41
0
  0
VERTEX
  8
0
 10
10.3015
 20
1.82958
 30
0.0
 40
0
 41
0
  0
VERTEX
  8
0
 10
10.2908
 20
1.859
 30
0.0
 40
0
 41
0
  0
VERTEX
  8
0
 10
10.2862
 20
1.89074
 30
0.0
 40
0
 41
0
  0
VERTEX
  8
0
 10
10.2862
 20
1.90132
 30
0.0
 40
0
 41
0
  0
VERTEX
  8
0
 10
10.2862
 20
1.91319
 30
0.0
 40
0
 41
0
  0
VERTEX
  8
0
 10
10.2913
 20
1.94883
 30
0.0
 40
0
 41
0
  0
VERTEX
  8
0
 10
10.3034
 20
1.98335
 30
0.0
 40
0
 41
0
  0
VERTEX
  8
0
 10
10.3069
 20
1.98953
 30
0.0
 40
0
 41
0
  0
VERTEX
  8
0
 10
10.3103
 20
1.99576
 30
0.0
 40
0
 41
0
  0
VERTEX
  8
0
 10
10.3563
 20
2.04688
 30
0.0
 40
0
 41
0
  0
VERTEX
  8
0
 10
10.3621
 20
2.05083
 30
0.0
 40
0
 41
0
  0
VERTEX
  8
0
 10
10.3678
 20
2.05485
 30
0.0
 40
0
 41
0
  0
VERTEX
  8
0
 10
10.4331
 20
2.08475
 30
0.0
 40
0
 41
0
  0
VERTEX
  8
0
 10
10.4404
 20
2.08669
 30
0.0
 40
0
 41
0
  0
VERTEX
  8
0
 10
10.4477
 20
2.08871
 30
0.0
 40
0
 41
0
  0
VERTEX
  8
0
 10
10.5098
 20
2.09847
 30
0.0
 40
0
 41
0
  0
VERTEX
  8
0
 10
10.5305
 20
2.09847
 30
0.0
 40
0
 41
0
  0
VERTEX
  8
0
 10
10.5545
 20
2.09847
 30
0.0
 40
0
 41
0
  0
VERTEX
  8
0
 10
10.6193
 20
2.08826
 30
0.0
 40
0
 41
0
  0
VERTEX
  8
0
 10
10.6267
 20
2.08621
 30
0.0
 40
0
 41
0
  0
VERTEX
  8
0
 10
10.6341
 20
2.08421
 30
0.0
 40
0
 41
0
  0
VERTEX
  8
0
 10
10.6989
 20
2.05197
 30
0.0
 40
0
 41
0
  0
VERTEX
  8
0
 10
10.7045
 20
2.04753
 30
0.0
 40
0
 41
0
  0
VERTEX
  8
0
 10
10.7101
 20
2.04312
 30
0.0
 40
0
 41
0
  0
VERTEX
  8
0
 10
10.7345
 20
2.01774
 30
0.0
 40
0
 41
0
  0
VERTEX
  8
0
 10
10.7541
 20
1.98774
 30
0.0
 40
0
 41
0
  0
VERTEX
  8
0
 10
10.7574
 20
1.98107
 30
0.0
 40
0
 41
0
  0
VERTEX
  8
0
 10
10.7606
 20
1.97439
 30
0.0
 40
0
 41
0
  0
VERTEX
  8
0
 10
10.7723
 20
1.93713
 30
0.0
 40
0
 41
0
  0
VERTEX
  8
0
 10
10.7783
 20
1.89458
 30
0.0
 40
0
 41
0
  0
VERTEX
  8
0
 10
10.7786
 20
1.88531
 30
0.0
 40
0
 41
0
  0
VERTEX
  8
0
 10
10.6937
 20
1.88531
 30
0.0
 40
0
 41
0
  0
VERTEX
  8
0
 10
10.6924
 20
1.8974
 30
0.0
 40
0
 41
0
  0
VERTEX
  8
0
 10
10.6768
 20
1.94792
 30
0.0
 40
0
 41
0
  0
VERTEX
  8
0
 10
10.6488
 20
1.98508
 30
0.0
 40
0
 41
0
  0
VERTEX
  8
0
 10
10.6413
 20
1.99046
 30
0.0
 40
0
 41
0
  0
SEQEND
 8
0
  0
POLYLINE
  8
0
 62
     250
 66
     1
 10
0
 20
0
 30
0.0
 70
     1
 40
0
 41
0
  0
VERTEX
  8
0
 10
9.50689
 20
2.08247
 30
0.0
 40
0
 41
0
  0
VERTEX
  8
0
 10
9.86165
 20
1.53629
 30
0.0
 40
0
 41
0
  0
VERTEX
  8
0
 10
9.8635
 20
1.53629
 30
0.0
 40
0
 41
0
  0
VERTEX
  8
0
 10
9.8635
 20
2.08247
 30
0.0
 40
0
 41
0
  0
VERTEX
  8
0
 10
9.9484
 20
2.08247
 30
0.0
 40
0
 41
0
  0
VERTEX
  8
0
 10
9.9484
 20
1.40896
 30
0.0
 40
0
 41
0
  0
VERTEX
  8
0
 10
9.85032
 20
1.40896
 30
0.0
 40
0
 41
0
  0
VERTEX
  8
0
 10
9.49843
 20
1.94943
 30
0.0
 40
0
 41
0
  0
VERTEX
  8
0
 10
9.49653
 20
1.94943
 30
0.0
 40
0
 41
0
  0
VERTEX
  8
0
 10
9.49653
 20
1.40896
 30
0.0
 40
0
 41
0
  0
VERTEX
  8
0
 10
9.41163
 20
1.40896
 30
0.0
 40
0
 41
0
  0
VERTEX
  8
0
 10
9.41163
 20
2.08247
 30
0.0
 40
0
 41
0
  0
VERTEX
  8
0
 10
9.50689
 20
2.08247
 30
0.0
 40
0
 41
0
  0
SEQEND
 8
0
  0
POLYLINE
  8
0
 62
     250
 66
     1
 10
0
 20
0
 30
0.0
 70
     1
 40
0
 41
0
  0
VERTEX
  8
0
 10
8.54096
 20
1.64524
 30
0.0
 40
0
 41
0
  0
VERTEX
  8
0
 10
8.54312
 20
1.63699
 30
0.0
 40
0
 41
0
  0
VERTEX
  8
0
 10
8.57775
 20
1.56272
 30
0.0
 40
0
 41
0
  0
VERTEX
  8
0
 10
8.58247
 20
1.5561
 30
0.0
 40
0
 41
0
  0
VERTEX
  8
0
 10
8.58718
 20
1.54953
 30
0.0
 40
0
 41
0
  0
VERTEX
  8
0
 10
8.61475
 20
1.5204
 30
0.0
 40
0
 41
0
  0
VERTEX
  8
0
 10
8.64768
 20
1.49647
 30
0.0
 40
0
 41
0
  0
VERTEX
  8
0
 10
8.65511
 20
1.49246
 30
0.0
 40
0
 41
0
  0
VERTEX
  8
0
 10
8.66249
 20
1.48844
 30
0.0
 40
0
 41
0
  0
VERTEX
  8
0
 10
8.70367
 20
1.47439
 30
0.0
 40
0
 41
0
  0
VERTEX
  8
0
 10
8.74647
 20
1.46838
 30
0.0
 40
0
 41
0
  0
VERTEX
  8
0
 10
8.76079
 20
1.46838
 30
0.0
 40
0
 41
0
  0
VERTEX
  8
0
 10
8.77501
 20
1.46838
 30
0.0
 40
0
 41
0
  0
VERTEX
  8
0
 10
8.81782
 20
1.47439
 30
0.0
 40
0
 41
0
  0
VERTEX
  8
0
 10
8.859
 20
1.48844
 30
0.0
 40
0
 41
0
  0
VERTEX
  8
0
 10
8.86643
 20
1.49246
 30
0.0
 40
0
 41
0
  0
VERTEX
  8
0
 10
8.87381
 20
1.49647
 30
0.0
 40
0
 41
0
  0
VERTEX
  8
0
 10
8.90674
 20
1.5204
 30
0.0
 40
0
 41
0
  0
VERTEX
  8
0
 10
8.93435
 20
1.54953
 30
0.0
 40
0
 41
0
  0
VERTEX
  8
0
 10
8.93907
 20
1.5561
 30
0.0
 40
0
 41
0
  0
VERTEX
  8
0
 10
8.94379
 20
1.56272
 30
0.0
 40
0
 41
0
  0
VERTEX
  8
0
 10
8.97835
 20
1.63699
 30
0.0
 40
0
 41
0
  0
VERTEX
  8
0
 10
8.98058
 20
1.64524
 30
0.0
 40
0
 41
0
  0
VERTEX
  8
0
 10
8.98275
 20
1.65354
 30
0.0
 40
0
 41
0
  0
VERTEX
  8
0
 10
8.99382
 20
1.72271
 30
0.0
 40
0
 41
0
  0
VERTEX
  8
0
 10
8.99382
 20
1.74571
 30
0.0
 40
0
 41
0
  0
VERTEX
  8
0
 10
8.99382
 20
1.77083
 30
0.0
 40
0
 41
0
  0
VERTEX
  8
0
 10
8.98275
 20
1.83789
 30
0.0
 40
0
 41
0
  0
VERTEX
  8
0
 10
8.98058
 20
1.84614
 30
0.0
 40
0
 41
0
  0
VERTEX
  8
0
 10
8.97835
 20
1.85444
 30
0.0
 40
0
 41
0
  0
VERTEX
  8
0
 10
8.94379
 20
1.92871
 30
0.0
 40
0
 41
0
  0
VERTEX
  8
0
 10
8.93907
 20
1.93528
 30
0.0
 40
0
 41
0
  0
VERTEX
  8
0
 10
8.93435
 20
1.94189
 30
0.0
 40
0
 41
0
  0
VERTEX
  8
0
 10
8.90674
 20
1.97103
 30
0.0
 40
0
 41
0
  0
VERTEX
  8
0
 10
8.87381
 20
1.99496
 30
0.0
 40
0
 41
0
  0
VERTEX
  8
0
 10
8.86643
 20
1.99897
 30
0.0
 40
0
 41
0
  0
VERTEX
  8
0
 10
8.859
 20
2.00299
 30
0.0
 40
0
 41
0
  0
VERTEX
  8
0
 10
8.81782
 20
2.01704
 30
0.0
 40
0
 41
0
  0
VERTEX
  8
0
 10
8.77501
 20
2.023
 30
0.0
 40
0
 41
0
  0
VERTEX
  8
0
 10
8.76079
 20
2.023
 30
0.0
 40
0
 41
0
  0
VERTEX
  8
0
 10
8.74647
 20
2.023
 30
0.0
 40
0
 41
0
  0
VERTEX
  8
0
 10
8.70367
 20
2.01704
 30
0.0
 40
0
 41
0
  0
VERTEX
  8
0
 10
8.66249
 20
2.00299
 30
0.0
 40
0
 41
0
  0
VERTEX
  8
0
 10
8.65511
 20
1.99897
 30
0.0
 40
0
 41
0
  0
VERTEX
  8
0
 10
8.64768
 20
1.99496
 30
0.0
 40
0
 41
0
  0
VERTEX
  8
0
 10
8.61475
 20
1.97103
 30
0.0
 40
0
 41
0
  0
VERTEX
  8
0
 10
8.58718
 20
1.94189
 30
0.0
 40
0
 41
0
  0
VERTEX
  8
0
 10
8.58247
 20
1.93528
 30
0.0
 40
0
 41
0
  0
VERTEX
  8
0
 10
8.57775
 20
1.92871
 30
0.0
 40
0
 41
0
  0
VERTEX
  8
0
 10
8.54312
 20
1.85444
 30
0.0
 40
0
 41
0
  0
VERTEX
  8
0
 10
8.54096
 20
1.84614
 30
0.0
 40
0
 41
0
  0
VERTEX
  8
0
 10
8.53874
 20
1.83789
 30
0.0
 40
0
 41
0
  0
VERTEX
  8
0
 10
8.52778
 20
1.76878
 30
0.0
 40
0
 41
0
  0
VERTEX
  8
0
 10
8.52778
 20
1.74571
 30
0.0
 40
0
 41
0
  0
VERTEX
  8
0
 10
8.52778
 20
1.7206
 30
0.0
 40
0
 41
0
  0
VERTEX
  8
0
 10
8.53874
 20
1.65354
 30
0.0
 40
0
 41
0
  0
VERTEX
  8
0
 10
8.54096
 20
1.64524
 30
0.0
 40
0
 41
0
  0
SEQEND
 8
0
  0
POLYLINE
  8
0
 62
     250
 66
     1
 10
0
 20
0
 30
0.0
 70
     1
 40
0
 41
0
  0
VERTEX
  8
0
 10
8.45844
 20
1.87819
 30
0.0
 40
0
 41
0
  0
VERTEX
  8
0
 10
8.46181
 20
1.88883
 30
0.0
 40
0
 41
0
  0
VERTEX
  8
0
 10
8.48378
 20
1.93826
 30
0.0
 40
0
 41
0
  0
VERTEX
  8
0
 10
8.51253
 20
1.98281
 30
0.0
 40
0
 41
0
  0
VERTEX
  8
0
 10
8.51932
 20
1.99094
 30
0.0
 40
0
 41
0
  0
VERTEX
  8
0
 10
8.52604
 20
1.99914
 30
0.0
 40
0
 41
0
  0
VERTEX
  8
0
 10
8.56478
 20
2.03504
 30
0.0
 40
0
 41
0
  0
VERTEX
  8
0
 10
8.61014
 20
2.0644
 30
0.0
 40
0
 41
0
  0
VERTEX
  8
0
 10
8.62022
 20
2.06922
 30
0.0
 40
0
 41
0
  0
VERTEX
  8
0
 10
8.63026
 20
2.07411
 30
0.0
 40
0
 41
0
  0
VERTEX
  8
0
 10
8.68554
 20
2.09119
 30
0.0
 40
0
 41
0
  0
VERTEX
  8
0
 10
8.74197
 20
2.09847
 30
0.0
 40
0
 41
0
  0
VERTEX
  8
0
 10
8.76079
 20
2.09847
 30
0.0
 40
0
 41
0
  0
VERTEX
  8
0
 10
8.77957
 20
2.09847
 30
0.0
 40
0
 41
0
  0
VERTEX
  8
0
 10
8.83599
 20
2.09119
 30
0.0
 40
0
 41
0
  0
VERTEX
  8
0
 10
8.89128
 20
2.07411
 30
0.0
 40
0
 41
0
  0
VERTEX
  8
0
 10
8.90136
 20
2.06922
 30
0.0
 40
0
 41
0
  0
VERTEX
  8
0
 10
8.9114
 20
2.0644
 30
0.0
 40
0
 41
0
  0
VERTEX
  8
0
 10
8.95676
 20
2.03504
 30
0.0
 40
0
 41
0
  0
VERTEX
  8
0
 10
8.9955
 20
1.99914
 30
0.0
 40
0
 41
0
  0
VERTEX
  8
0
 10
9.00228
 20
1.99094
 30
0.0
 40
0
 41
0
  0
VERTEX
  8
0
 10
9.009
 20
1.98281
 30
0.0
 40
0
 41
0
  0
VERTEX
  8
0
 10
9.03776
 20
1.93826
 30
0.0
 40
0
 41
0
  0
VERTEX
  8
0
 10
9.05974
 20
1.88883
 30
0.0
 40
0
 41
0
  0
VERTEX
  8
0
 10
9.06315
 20
1.87819
 30
0.0
 40
0
 41
0
  0
VERTEX
  8
0
 10
9.06651
 20
1.86762
 30
0.0
 40
0
 41
0
  0
VERTEX
  8
0
 10
9.08344
 20
1.77621
 30
0.0
 40
0
 41
0
  0
VERTEX
  8
0
 10
9.08344
 20
1.74571
 30
0.0
 40
0
 41
0
  0
VERTEX
  8
0
 10
9.08344
 20
1.71262
 30
0.0
 40
0
 41
0
  0
VERTEX
  8
0
 10
9.06651
 20
1.62381
 30
0.0
 40
0
 41
0
  0
VERTEX
  8
0
 10
9.06315
 20
1.61317
 30
0.0
 40
0
 41
0
  0
VERTEX
  8
0
 10
9.05974
 20
1.6026
 30
0.0
 40
0
 41
0
  0
VERTEX
  8
0
 10
9.03776
 20
1.55317
 30
0.0
 40
0
 41
0
  0
VERTEX
  8
0
 10
9.009
 20
1.50863
 30
0.0
 40
0
 41
0
  0
VERTEX
  8
0
 10
9.00228
 20
1.50043
 30
0.0
 40
0
 41
0
  0
VERTEX
  8
0
 10
8.9955
 20
1.49229
 30
0.0
 40
0
 41
0
  0
VERTEX
  8
0
 10
8.95676
 20
1.45649
 30
0.0
 40
0
 41
0
  0
VERTEX
  8
0
 10
8.9114
 20
1.42746
 30
0.0
 40
0
 41
0
  0
VERTEX
  8
0
 10
8.90136
 20
1.42264
 30
0.0
 40
0
 41
0
  0
VERTEX
  8
0
 10
8.89128
 20
1.41786
 30
0.0
 40
0
 41
0
  0
VERTEX
  8
0
 10
8.83599
 20
1.40104
 30
0.0
 40
0
 41
0
  0
VERTEX
  8
0
 10
8.77957
 20
1.39382
 30
0.0
 40
0
 41
0
  0
VERTEX
  8
0
 10
8.76079
 20
1.39382
 30
0.0
 40
0
 41
0
  0
VERTEX
  8
0
 10
8.74197
 20
1.39382
 30
0.0
 40
0
 41
0
  0
VERTEX
  8
0
 10
8.68554
 20
1.40104
 30
0.0
 40
0
 41
0
  0
VERTEX
  8
0
 10
8.63026
 20
1.41786
 30
0.0
 40
0
 41
0
  0
VERTEX
  8
0
 10
8.62022
 20
1.42264
 30
0.0
 40
0
 41
0
  0
VERTEX
  8
0
 10
8.61014
 20
1.42746
 30
0.0
 40
0
 41
0
  0
VERTEX
  8
0
 10
8.56478
 20
1.45649
 30
0.0
 40
0
 41
0
  0
VERTEX
  8
0
 10
8.52604
 20
1.49229
 30
0.0
 40
0
 41
0
  0
VERTEX
  8
0
 10
8.51932
 20
1.50043
 30
0.0
 40
0
 41
0
  0
VERTEX
  8
0
 10
8.51253
 20
1.50863
 30
0.0
 40
0
 41
0
  0
VERTEX
  8
0
 10
8.48378
 20
1.55317
 30
0.0
 40
0
 41
0
  0
VERTEX
  8
0
 10
8.46181
 20
1.6026
 30
0.0
 40
0
 41
0
  0
VERTEX
  8
0
 10
8.45844
 20
1.61317
 30
0.0
 40
0
 41
0
  0
VERTEX
  8
0
 10
8.45503
 20
1.62381
 30
0.0
 40
0
 41
0
  0
VERTEX
  8
0
 10
8.43815
 20
1.71528
 30
0.0
 40
0
 41
0
  0
VERTEX
  8
0
 10
8.43815
 20
1.74571
 30
0.0
 40
0
 41
0
  0
VERTEX
  8
0
 10
8.43815
 20
1.77886
 30
0.0
 40
0
 41
0
  0
VERTEX
  8
0
 10
8.45503
 20
1.86762
 30
0.0
 40
0
 41
0
  0
VERTEX
  8
0
 10
8.45844
 20
1.87819
 30
0.0
 40
0
 41
0
  0
SEQEND
 8
0
  0
POLYLINE
  8
0
 62
     250
 66
     1
 10
0
 20
0
 30
0.0
 70
     1
 40
0
 41
0
  0
VERTEX
  8
0
 10
8.10796
 20
1.40896
 30
0.0
 40
0
 41
0
  0
VERTEX
  8
0
 10
8.01833
 20
1.40896
 30
0.0
 40
0
 41
0
  0
VERTEX
  8
0
 10
8.01833
 20
2.08247
 30
0.0
 40
0
 41
0
  0
VERTEX
  8
0
 10
8.10796
 20
2.08247
 30
0.0
 40
0
 41
0
  0
VERTEX
  8
0
 10
8.10796
 20
1.40896
 30
0.0
 40
0
 41
0
  0
SEQEND
 8
0
  0
POLYLINE
  8
0
 62
     250
 66
     1
 10
0
 20
0
 30
0.0
 70
     1
 40
0
 41
0
  0
VERTEX
  8
0
 10
7.18718
 20
2.007
 30
0.0
 40
0
 41
0
  0
VERTEX
  8
0
 10
7.18718
 20
2.08247
 30
0.0
 40
0
 41
0
  0
VERTEX
  8
0
 10
7.72581
 20
2.08247
 30
0.0
 40
0
 41
0
  0
VERTEX
  8
0
 10
7.72581
 20
2.007
 30
0.0
 40
0
 41
0
  0
VERTEX
  8
0
 10
7.50131
 20
2.007
 30
0.0
 40
0
 41
0
  0
VERTEX
  8
0
 10
7.50131
 20
1.40896
 30
0.0
 40
0
 41
0
  0
VERTEX
  8
0
 10
7.41168
 20
1.40896
 30
0.0
 40
0
 41
0
  0
VERTEX
  8
0
 10
7.41168
 20
2.007
 30
0.0
 40
0
 41
0
  0
VERTEX
  8
0
 10
7.18718
 20
2.007
 30
0.0
 40
0
 41
0
  0
SEQEND
 8
0
  0
POLYLINE
  8
0
 62
     250
 66
     1
 10
0
 20
0
 30
0.0
 70
     1
 40
0
 41
0
  0
VERTEX
  8
0
 10
6.87028
 20
1.68722
 30
0.0
 40
0
 41
0
  0
VERTEX
  8
0
 10
6.75803
 20
2.00131
 30
0.0
 40
0
 41
0
  0
VERTEX
  8
0
 10
6.75613
 20
2.00131
 30
0.0
 40
0
 41
0
  0
VERTEX
  8
0
 10
6.64199
 20
1.68722
 30
0.0
 40
0
 41
0
  0
VERTEX
  8
0
 10
6.87028
 20
1.68722
 30
0.0
 40
0
 41
0
  0
SEQEND
 8
0
  0
POLYLINE
  8
0
 62
     250
 66
     1
 10
0
 20
0
 30
0.0
 70
     1
 40
0
 41
0
  0
VERTEX
  8
0
 10
6.808
 20
2.08247
 30
0.0
 40
0
 41
0
  0
VERTEX
  8
0
 10
7.07124
 20
1.40896
 30
0.0
 40
0
 41
0
  0
VERTEX
  8
0
 10
6.97217
 20
1.40896
 30
0.0
 40
0
 41
0
  0
VERTEX
  8
0
 10
6.8986
 20
1.61176
 30
0.0
 40
0
 41
0
  0
VERTEX
  8
0
 10
6.61367
 20
1.61176
 30
0.0
 40
0
 41
0
  0
VERTEX
  8
0
 10
6.53819
 20
1.40896
 30
0.0
 40
0
 41
0
  0
VERTEX
  8
0
 10
6.44667
 20
1.40896
 30
0.0
 40
0
 41
0
  0
VERTEX
  8
0
 10
6.70893
 20
2.08247
 30
0.0
 40
0
 41
0
  0
VERTEX
  8
0
 10
6.808
 20
2.08247
 30
0.0
 40
0
 41
0
  0
SEQEND
 8
0
  0
POLYLINE
  8
0
 62
     250
 66
     1
 10
0
 20
0
 30
0.0
 70
     1
 40
0
 41
0
  0
VERTEX
  8
0
 10
6.0415
 20
1.98719
 30
0.0
 40
0
 41
0
  0
VERTEX
  8
0
 10
6.03293
 20
1.99317
 30
0.0
 40
0
 41
0
  0
VERTEX
  8
0
 10
5.98525
 20
2.01406
 30
0.0
 40
0
 41
0
  0
VERTEX
  8
0
 10
5.93576
 20
2.023
 30
0.0
 40
0
 41
0
  0
VERTEX
  8
0
 10
5.91932
 20
2.023
 30
0.0
 40
0
 41
0
  0
VERTEX
  8
0
 10
5.90528
 20
2.023
 30
0.0
 40
0
 41
0
  0
VERTEX
  8
0
 10
5.86328
 20
2.01736
 30
0.0
 40
0
 41
0
  0
VERTEX
  8
0
 10
5.82319
 20
2.00418
 30
0.0
 40
0
 41
0
  0
VERTEX
  8
0
 10
5.81603
 20
2.00037
 30
0.0
 40
0
 41
0
  0
VERTEX
  8
0
 10
5.80886
 20
1.99664
 30
0.0
 40
0
 41
0
  0
VERTEX
  8
0
 10
5.77686
 20
1.9739
 30
0.0
 40
0
 41
0
  0
VERTEX
  8
0
 10
5.74989
 20
1.94596
 30
0.0
 40
0
 41
0
  0
VERTEX
  8
0
 10
5.74528
 20
1.93956
 30
0.0
 40
0
 41
0
  0
VERTEX
  8
0
 10
5.74061
 20
1.93321
 30
0.0
 40
0
 41
0
  0
VERTEX
  8
0
 10
5.70643
 20
1.86046
 30
0.0
 40
0
 41
0
  0
VERTEX
  8
0
 10
5.70426
 20
1.85226
 30
0.0
 40
0
 41
0
  0
VERTEX
  8
0
 10
5.70204
 20
1.84412
 30
0.0
 40
0
 41
0
  0
VERTEX
  8
0
 10
5.69103
 20
1.77382
 30
0.0
 40
0
 41
0
  0
VERTEX
  8
0
 10
5.69103
 20
1.75038
 30
0.0
 40
0
 41
0
  0
VERTEX
  8
0
 10
5.69103
 20
1.72314
 30
0.0
 40
0
 41
0
  0
VERTEX
  8
0
 10
5.70204
 20
1.65001
 30
0.0
 40
0
 41
0
  0
VERTEX
  8
0
 10
5.70426
 20
1.64144
 30
0.0
 40
0
 41
0
  0
VERTEX
  8
0
 10
5.70643
 20
1.63292
 30
0.0
 40
0
 41
0
  0
VERTEX
  8
0
 10
5.72108
 20
1.59338
 30
0.0
 40
0
 41
0
  0
VERTEX
  8
0
 10
5.74061
 20
1.55826
 30
0.0
 40
0
 41
0
  0
VERTEX
  8
0
 10
5.74528
 20
1.55186
 30
0.0
 40
0
 41
0
  0
VERTEX
  8
0
 10
5.74989
 20
1.54551
 30
0.0
 40
0
 41
0
  0
VERTEX
  8
0
 10
5.77696
 20
1.51758
 30
0.0
 40
0
 41
0
  0
VERTEX
  8
0
 10
5.80925
 20
1.49479
 30
0.0
 40
0
 41
0
  0
VERTEX
  8
0
 10
5.81651
 20
1.491
 30
0.0
 40
0
 41
0
  0
VERTEX
  8
0
 10
5.82374
 20
1.48725
 30
0.0
 40
0
 41
0
  0
VERTEX
  8
0
 10
5.86415
 20
1.47407
 30
0.0
 40
0
 41
0
  0
VERTEX
  8
0
 10
5.90625
 20
1.46838
 30
0.0
 40
0
 41
0
  0
VERTEX
  8
0
 10
5.92031
 20
1.46838
 30
0.0
 40
0
 41
0
  0
VERTEX
  8
0
 10
5.94
 20
1.46838
 30
0.0
 40
0
 41
0
  0
VERTEX
  8
0
 10
5.99333
 20
1.48058
 30
0.0
 40
0
 41
0
  0
VERTEX
  8
0
 10
5.99908
 20
1.48296
 30
0.0
 40
0
 41
0
  0
VERTEX
  8
0
 10
6.00478
 20
1.4854
 30
0.0
 40
0
 41
0
  0
VERTEX
  8
0
 10
6.05431
 20
1.51926
 30
0.0
 40
0
 41
0
  0
VERTEX
  8
0
 10
6.05849
 20
1.52354
 30
0.0
 40
0
 41
0
  0
VERTEX
  8
0
 10
6.06261
 20
1.52789
 30
0.0
 40
0
 41
0
  0
VERTEX
  8
0
 10
6.09526
 20
1.57937
 30
0.0
 40
0
 41
0
  0
VERTEX
  8
0
 10
6.09765
 20
1.58535
 30
0.0
 40
0
 41
0
  0
VERTEX
  8
0
 10
6.09999
 20
1.59131
 30
0.0
 40
0
 41
0
  0
VERTEX
  8
0
 10
6.11415
 20
1.65582
 30
0.0
 40
0
 41
0
  0
VERTEX
  8
0
 10
6.11464
 20
1.66271
 30
0.0
 40
0
 41
0
  0
VERTEX
  8
0
 10
6.20421
 20
1.66271
 30
0.0
 40
0
 41
0
  0
VERTEX
  8
0
 10
6.20264
 20
1.64757
 30
0.0
 40
0
 41
0
  0
VERTEX
  8
0
 10
6.19374
 20
1.6026
 30
0.0
 40
0
 41
0
  0
VERTEX
  8
0
 10
6.17567
 20
1.54953
 30
0.0
 40
0
 41
0
  0
VERTEX
  8
0
 10
6.1499
 20
1.50353
 30
0.0
 40
0
 41
0
  0
VERTEX
  8
0
 10
6.12571
 20
1.47342
 30
0.0
 40
0
 41
0
  0
VERTEX
  8
0
 10
6.11649
 20
1.46463
 30
0.0
 40
0
 41
0
  0
VERTEX
  8
0
 10
6.10726
 20
1.45589
 30
0.0
 40
0
 41
0
  0
VERTEX
  8
0
 10
6.07579
 20
1.43371
 30
0.0
 40
0
 41
0
  0
VERTEX
  8
0
 10
6.02826
 20
1.41157
 30
0.0
 40
0
 41
0
  0
VERTEX
  8
0
 10
5.9739
 20
1.39828
 30
0.0
 40
0
 41
0
  0
VERTEX
  8
0
 10
5.928
 20
1.39382
 30
0.0
 40
0
 41
0
  0
VERTEX
  8
0
 10
5.91276
 20
1.39382
 30
0.0
 40
0
 41
0
  0
VERTEX
  8
0
 10
5.89437
 20
1.39382
 30
0.0
 40
0
 41
0
  0
VERTEX
  8
0
 10
5.83936
 20
1.40061
 30
0.0
 40
0
 41
0
  0
VERTEX
  8
0
 10
5.78564
 20
1.41629
 30
0.0
 40
0
 41
0
  0
VERTEX
  8
0
 10
5.77593
 20
1.42074
 30
0.0
 40
0
 41
0
  0
VERTEX
  8
0
 10
5.76617
 20
1.42524
 30
0.0
 40
0
 41
0
  0
VERTEX
  8
0
 10
5.72239
 20
1.45269
 30
0.0
 40
0
 41
0
  0
VERTEX
  8
0
 10
5.68517
 20
1.48693
 30
0.0
 40
0
 41
0
  0
VERTEX
  8
0
 10
5.67876
 20
1.49479
 30
0.0
 40
0
 41
0
  0
VERTEX
  8
0
 10
5.67231
 20
1.50265
 30
0.0
 40
0
 41
0
  0
VERTEX
  8
0
 10
5.64492
 20
1.54622
 30
0.0
 40
0
 41
0
  0
VERTEX
  8
0
 10
5.62397
 20
1.59543
 30
0.0
 40
0
 41
0
  0
VERTEX
  8
0
 10
5.62076
 20
1.60612
 30
0.0
 40
0
 41
0
  0
VERTEX
  8
0
 10
5.61751
 20
1.61681
 30
0.0
 40
0
 41
0
  0
VERTEX
  8
0
 10
5.60622
 20
1.67264
 30
0.0
 40
0
 41
0
  0
VERTEX
  8
0
 10
5.6014
 20
1.72601
 30
0.0
 40
0
 41
0
  0
VERTEX
  8
0
 10
5.6014
 20
1.74382
 30
0.0
 40
0
 41
0
  0
VERTEX
  8
0
 10
5.6014
 20
1.76167
 30
0.0
 40
0
 41
0
  0
VERTEX
  8
0
 10
5.60656
 20
1.81515
 30
0.0
 40
0
 41
0
  0
VERTEX
  8
0
 10
5.61871
 20
1.87125
 30
0.0
 40
0
 41
0
  0
VERTEX
  8
0
 10
5.62218
 20
1.882
 30
0.0
 40
0
 41
0
  0
VERTEX
  8
0
 10
5.6256
 20
1.89279
 30
0.0
 40
0
 41
0
  0
VERTEX
  8
0
 10
5.64774
 20
1.94254
 30
0.0
 40
0
 41
0
  0
VERTEX
  8
0
 10
5.67632
 20
1.98676
 30
0.0
 40
0
 41
0
  0
VERTEX
  8
0
 10
5.68306
 20
1.99474
 30
0.0
 40
0
 41
0
  0
VERTEX
  8
0
 10
5.68972
 20
2.00276
 30
0.0
 40
0
 41
0
  0
VERTEX
  8
0
 10
5.72803
 20
2.03776
 30
0.0
 40
0
 41
0
  0
VERTEX
  8
0
 10
5.773
 20
2.06603
 30
0.0
 40
0
 41
0
  0
VERTEX
  8
0
 10
5.78304
 20
2.07064
 30
0.0
 40
0
 41
0
  0
VERTEX
  8
0
 10
5.79303
 20
2.07531
 30
0.0
 40
0
 41
0
  0
VERTEX
  8
0
 10
5.84728
 20
2.09153
 30
0.0
 40
0
 41
0
  0
VERTEX
  8
0
 10
5.90201
 20
2.09847
 30
0.0
 40
0
 41
0
  0
VERTEX
  8
0
 10
5.92031
 20
2.09847
 30
0.0
 40
0
 41
0
  0
VERTEX
  8
0
 10
5.94526
 20
2.09847
 30
0.0
 40
0
 41
0
  0
VERTEX
  8
0
 10
6.01243
 20
2.08669
 30
0.0
 40
0
 41
0
  0
VERTEX
  8
0
 10
6.02029
 20
2.08431
 30
0.0
 40
0
 41
0
  0
VERTEX
  8
0
 10
6.0281
 20
2.08197
 30
0.0
 40
0
 41
0
  0
VERTEX
  8
0
 10
6.0981
 20
2.04742
 30
0.0
 40
0
 41
0
  0
VERTEX
  8
0
 10
6.10422
 20
2.04286
 30
0.0
 40
0
 41
0
  0
VERTEX
  8
0
 10
6.11035
 20
2.03831
 30
0.0
 40
0
 41
0
  0
VERTEX
  8
0
 10
6.1614
 20
1.98128
 30
0.0
 40
0
 41
0
  0
VERTEX
  8
0
 10
6.16553
 20
1.97444
 30
0.0
 40
0
 41
0
  0
VERTEX
  8
0
 10
6.1696
 20
1.96761
 30
0.0
 40
0
 41
0
  0
VERTEX
  8
0
 10
6.18582
 20
1.93024
 30
0.0
 40
0
 41
0
  0
VERTEX
  8
0
 10
6.19635
 20
1.88861
 30
0.0
 40
0
 41
0
  0
VERTEX
  8
0
 10
6.19764
 20
1.87967
 30
0.0
 40
0
 41
0
  0
VERTEX
  8
0
 10
6.10801
 20
1.87967
 30
0.0
 40
0
 41
0
  0
VERTEX
  8
0
 10
6.10547
 20
1.8916
 30
0.0
 40
0
 41
0
  0
VERTEX
  8
0
 10
6.08382
 20
1.94239
 30
0.0
 40
0
 41
0
  0
VERTEX
  8
0
 10
6.05007
 20
1.98122
 30
0.0
 40
0
 41
0
  0
VERTEX
  8
0
 10
6.0415
 20
1.98719
 30
0.0
 40
0
 41
0
  0
SEQEND
 8
0
  0
POLYLINE
  8
0
 62
     250
 66
     1
 10
0
 20
0
 30
0.0
 70
     1
 40
0
 41
0
  0
VERTEX
  8
0
 10
5.2665
 20
1.40896
 30
0.0
 40
0
 41
0
  0
VERTEX
  8
0
 10
5.17686
 20
1.40896
 30
0.0
 40
0
 41
0
  0
VERTEX
  8
0
 10
5.17686
 20
2.08247
 30
0.0
 40
0
 41
0
  0
VERTEX
  8
0
 10
5.2665
 20
2.08247
 30
0.0
 40
0
 41
0
  0
VERTEX
  8
0
 10
5.2665
 20
1.40896
 30
0.0
 40
0
 41
0
  0
SEQEND
 8
0
  0
POLYLINE
  8
0
 62
     250
 66
     1
 10
0
 20
0
 30
0.0
 70
     1
 40
0
 41
0
  0
VERTEX
  8
0
 10
4.52962
 20
2.08247
 30
0.0
 40
0
 41
0
  0
VERTEX
  8
0
 10
4.52962
 20
1.48443
 30
0.0
 40
0
 41
0
  0
VERTEX
  8
0
 10
4.88624
 20
1.48443
 30
0.0
 40
0
 41
0
  0
VERTEX
  8
0
 10
4.88624
 20
1.40896
 30
0.0
 40
0
 41
0
  0
VERTEX
  8
0
 10
4.44
 20
1.40896
 30
0.0
 40
0
 41
0
  0
VERTEX
  8
0
 10
4.44
 20
2.08247
 30
0.0
 40
0
 41
0
  0
VERTEX
  8
0
 10
4.52962
 20
2.08247
 30
0.0
 40
0
 41
0
  0
SEQEND
 8
0
  0
POLYLINE
  8
0
 62
     250
 66
     1
 10
0
 20
0
 30
0.0
 70
     1
 40
0
 41
0
  0
VERTEX
  8
0
 10
3.88157
 20
1.75987
 30
0.0
 40
0
 41
0
  0
VERTEX
  8
0
 10
3.89426
 20
1.75971
 30
0.0
 40
0
 41
0
  0
VERTEX
  8
0
 10
3.94769
 20
1.76719
 30
0.0
 40
0
 41
0
  0
VERTEX
  8
0
 10
3.98747
 20
1.78564
 30
0.0
 40
0
 41
0
  0
VERTEX
  8
0
 10
3.99338
 20
1.79096
 30
0.0
 40
0
 41
0
  0
VERTEX
  8
0
 10
3.99924
 20
1.79633
 30
0.0
 40
0
 41
0
  0
VERTEX
  8
0
 10
4.01992
 20
1.83014
 30
0.0
 40
0
 41
0
  0
VERTEX
  8
0
 10
4.02875
 20
1.87011
 30
0.0
 40
0
 41
0
  0
VERTEX
  8
0
 10
4.02875
 20
1.8834
 30
0.0
 40
0
 41
0
  0
VERTEX
  8
0
 10
4.02875
 20
1.89675
 30
0.0
 40
0
 41
0
  0
VERTEX
  8
0
 10
4.01992
 20
1.93664
 30
0.0
 40
0
 41
0
  0
VERTEX
  8
0
 10
3.99924
 20
1.97011
 30
0.0
 40
0
 41
0
  0
VERTEX
  8
0
 10
3.99338
 20
1.97538
 30
0.0
 40
0
 41
0
  0
VERTEX
  8
0
 10
3.98747
 20
1.98068
 30
0.0
 40
0
 41
0
  0
VERTEX
  8
0
 10
3.94769
 20
1.99914
 30
0.0
 40
0
 41
0
  0
VERTEX
  8
0
 10
3.89806
 20
2.007
 30
0.0
 40
0
 41
0
  0
VERTEX
  8
0
 10
3.88157
 20
2.007
 30
0.0
 40
0
 41
0
  0
VERTEX
  8
0
 10
3.70611
 20
2.007
 30
0.0
 40
0
 41
0
  0
VERTEX
  8
0
 10
3.70611
 20
1.75987
 30
0.0
 40
0
 41
0
  0
VERTEX
  8
0
 10
3.88157
 20
1.75987
 30
0.0
 40
0
 41
0
  0
SEQEND
 8
0
  0
POLYLINE
  8
0
 62
     250
 66
     1
 10
0
 20
0
 30
0.0
 70
     1
 40
0
 41
0
  0
VERTEX
  8
0
 10
3.91178
 20
2.08247
 30
0.0
 40
0
 41
0
  0
VERTEX
  8
0
 10
3.93414
 20
2.08247
 30
0.0
 40
0
 41
0
  0
VERTEX
  8
0
 10
4.00125
 20
2.06939
 30
0.0
 40
0
 41
0
  0
VERTEX
  8
0
 10
4.05729
 20
2.03885
 30
0.0
 40
0
 41
0
  0
VERTEX
  8
0
 10
4.06603
 20
2.03011
 30
0.0
 40
0
 41
0
  0
VERTEX
  8
0
 10
4.07471
 20
2.02138
 30
0.0
 40
0
 41
0
  0
VERTEX
  8
0
 10
4.10525
 20
1.96729
 30
0.0
 40
0
 41
0
  0
VERTEX
  8
0
 10
4.11838
 20
1.9044
 30
0.0
 40
0
 41
0
  0
VERTEX
  8
0
 10
4.11838
 20
1.8834
 30
0.0
 40
0
 41
0
  0
VERTEX
  8
0
 10
4.11838
 20
1.86247
 30
0.0
 40
0
 41
0
  0
VERTEX
  8
0
 10
4.10525
 20
1.79949
 30
0.0
 40
0
 41
0
  0
VERTEX
  8
0
 10
4.07471
 20
1.74511
 30
0.0
 40
0
 41
0
  0
VERTEX
  8
0
 10
4.06603
 20
1.73628
 30
0.0
 40
0
 41
0
  0
VERTEX
  8
0
 10
4.05729
 20
1.72749
 30
0.0
 40
0
 41
0
  0
VERTEX
  8
0
 10
4.00125
 20
1.69694
 30
0.0
 40
0
 41
0
  0
VERTEX
  8
0
 10
3.92876
 20
1.68425
 30
0.0
 40
0
 41
0
  0
VERTEX
  8
0
 10
3.91178
 20
1.6844
 30
0.0
 40
0
 41
0
  0
VERTEX
  8
0
 10
3.70611
 20
1.6844
 30
0.0
 40
0
 41
0
  0
VERTEX
  8
0
 10
3.70611
 20
1.40896
 30
0.0
 40
0
 41
0
  0
VERTEX
  8
0
 10
3.61649
 20
1.40896
 30
0.0
 40
0
 41
0
  0
VERTEX
  8
0
 10
3.61649
 20
2.08247
 30
0.0
 40
0
 41
0
  0
VERTEX
  8
0
 10
3.91178
 20
2.08247
 30
0.0
 40
0
 41
0
  0
SEQEND
 8
0
  0
POLYLINE
  8
0
 62
     250
 66
     1
 10
0
 20
0
 30
0.0
 70
     1
 40
0
 41
0
  0
VERTEX
  8
0
 10
3.05811
 20
1.75987
 30
0.0
 40
0
 41
0
  0
VERTEX
  8
0
 10
3.07081
 20
1.75971
 30
0.0
 40
0
 41
0
  0
VERTEX
  8
0
 10
3.12418
 20
1.76719
 30
0.0
 40
0
 41
0
  0
VERTEX
  8
0
 10
3.16396
 20
1.78564
 30
0.0
 40
0
 41
0
  0
VERTEX
  8
0
 10
3.16986
 20
1.79096
 30
0.0
 40
0
 41
0
  0
VERTEX
  8
0
 10
3.17572
 20
1.79633
 30
0.0
 40
0
 41
0
  0
VERTEX
  8
0
 10
3.1964
 20
1.83014
 30
0.0
 40
0
 41
0
  0
VERTEX
  8
0
 10
3.20524
 20
1.87011
 30
0.0
 40
0
 41
0
  0
VERTEX
  8
0
 10
3.20524
 20
1.8834
 30
0.0
 40
0
 41
0
  0
VERTEX
  8
0
 10
3.20524
 20
1.89675
 30
0.0
 40
0
 41
0
  0
VERTEX
  8
0
 10
3.1964
 20
1.93664
 30
0.0
 40
0
 41
0
  0
VERTEX
  8
0
 10
3.17572
 20
1.97011
 30
0.0
 40
0
 41
0
  0
VERTEX
  8
0
 10
3.16986
 20
1.97538
 30
0.0
 40
0
 41
0
  0
VERTEX
  8
0
 10
3.16396
 20
1.98068
 30
0.0
 40
0
 41
0
  0
VERTEX
  8
0
 10
3.12418
 20
1.99914
 30
0.0
 40
0
 41
0
  0
VERTEX
  8
0
 10
3.0746
 20
2.007
 30
0.0
 40
0
 41
0
  0
VERTEX
  8
0
 10
3.05811
 20
2.007
 30
0.0
 40
0
 41
0
  0
VERTEX
  8
0
 10
2.8826
 20
2.007
 30
0.0
 40
0
 41
0
  0
VERTEX
  8
0
 10
2.8826
 20
1.75987
 30
0.0
 40
0
 41
0
  0
VERTEX
  8
0
 10
3.05811
 20
1.75987
 30
0.0
 40
0
 41
0
  0
SEQEND
 8
0
  0
POLYLINE
  8
0
 62
     250
 66
     1
 10
0
 20
0
 30
0.0
 70
     1
 40
0
 41
0
  0
VERTEX
  8
0
 10
3.08826
 20
2.08247
 30
0.0
 40
0
 41
0
  0
VERTEX
  8
0
 10
3.11062
 20
2.08247
 30
0.0
 40
0
 41
0
  0
VERTEX
  8
0
 10
3.17774
 20
2.06939
 30
0.0
 40
0
 41
0
  0
VERTEX
  8
0
 10
3.23378
 20
2.03885
 30
0.0
 40
0
 41
0
  0
VERTEX
  8
0
 10
3.24251
 20
2.03011
 30
0.0
 40
0
 41
0
  0
VERTEX
  8
0
 10
3.25119
 20
2.02138
 30
0.0
 40
0
 41
0
  0
VERTEX
  8
0
 10
3.28174
 20
1.96729
 30
0.0
 40
0
 41
0
  0
VERTEX
  8
0
 10
3.29486
 20
1.9044
 30
0.0
 40
0
 41
0
  0
VERTEX
  8
0
 10
3.29486
 20
1.8834
 30
0.0
 40
0
 41
0
  0
VERTEX
  8
0
 10
3.29486
 20
1.86247
 30
0.0
 40
0
 41
0
  0
VERTEX
  8
0
 10
3.28174
 20
1.79949
 30
0.0
 40
0
 41
0
  0
VERTEX
  8
0
 10
3.25119
 20
1.74511
 30
0.0
 40
0
 41
0
  0
VERTEX
  8
0
 10
3.24251
 20
1.73628
 30
0.0
 40
0
 41
0
  0
VERTEX
  8
0
 10
3.23378
 20
1.72749
 30
0.0
 40
0
 41
0
  0
VERTEX
  8
0
 10
3.17774
 20
1.69694
 30
0.0
 40
0
 41
0
  0
VERTEX
  8
0
 10
3.10525
 20
1.68425
 30
0.0
 40
0
 41
0
  0
VERTEX
  8
0
 10
3.08826
 20
1.6844
 30
0.0
 40
0
 41
0
  0
VERTEX
  8
0
 10
2.8826
 20
1.6844
 30
0.0
 40
0
 41
0
  0
VERTEX
  8
0
 10
2.8826
 20
1.40896
 30
0.0
 40
0
 41
0
  0
VERTEX
  8
0
 10
2.79297
 20
1.40896
 30
0.0
 40
0
 41
0
  0
VERTEX
  8
0
 10
2.79297
 20
2.08247
 30
0.0
 40
0
 41
0
  0
VERTEX
  8
0
 10
3.08826
 20
2.08247
 30
0.0
 40
0
 41
0
  0
SEQEND
 8
0
  0
POLYLINE
  8
0
 62
     250
 66
     1
 10
0
 20
0
 30
0.0
 70
     1
 40
0
 41
0
  0
VERTEX
  8
0
 10
2.31358
 20
1.68722
 30
0.0
 40
0
 41
0
  0
VERTEX
  8
0
 10
2.20133
 20
2.00131
 30
0.0
 40
0
 41
0
  0
VERTEX
  8
0
 10
2.19943
 20
2.00131
 30
0.0
 40
0
 41
0
  0
VERTEX
  8
0
 10
2.08529
 20
1.68722
 30
0.0
 40
0
 41
0
  0
VERTEX
  8
0
 10
2.31358
 20
1.68722
 30
0.0
 40
0
 41
0
  0
SEQEND
 8
0
  0
POLYLINE
  8
0
 62
     250
 66
     1
 10
0
 20
0
 30
0.0
 70
     1
 40
0
 41
0
  0
VERTEX
  8
0
 10
2.25136
 20
2.08247
 30
0.0
 40
0
 41
0
  0
VERTEX
  8
0
 10
2.51454
 20
1.40896
 30
0.0
 40
0
 41
0
  0
VERTEX
  8
0
 10
2.41547
 20
1.40896
 30
0.0
 40
0
 41
0
  0
VERTEX
  8
0
 10
2.3419
 20
1.61176
 30
0.0
 40
0
 41
0
  0
VERTEX
  8
0
 10
2.05701
 20
1.61176
 30
0.0
 40
0
 41
0
  0
VERTEX
  8
0
 10
1.9815
 20
1.40896
 30
0.0
 40
0
 41
0
  0
VERTEX
  8
0
 10
1.89003
 20
1.40896
 30
0.0
 40
0
 41
0
  0
VERTEX
  8
0
 10
2.15229
 20
2.08247
 30
0.0
 40
0
 41
0
  0
VERTEX
  8
0
 10
2.25136
 20
2.08247
 30
0.0
 40
0
 41
0
  0
SEQEND
 8
0
  0
ENDSEC
  0
EOF
